<svg width="1534" height="446" viewBox="0 0 1534 446" fill="none" xmlns="http://www.w3.org/2000/svg">
<path fill-rule="evenodd" clip-rule="evenodd" d="M461.521 30.8228C461.761 33.8504 462.277 34.839 463.982 36.5C466.028 38.4881 464.047 39.6912 466.446 42.4208C467.413 43.5184 467.242 43.6384 466.828 45.3393C466.319 47.4183 465.93 49.828 464.651 51.5545C463.735 52.7939 461.259 54.1823 460.769 55.8651C460.391 57.1626 461.459 57.428 461.565 59.0926C461.663 60.6627 461.307 63.196 462.811 64.0829C465.392 65.613 465.854 66.9651 470.757 65.8275C472.977 65.3114 471.814 66.1764 473.606 66.6962C475.009 67.1032 476.023 66.8488 477.23 66.449C479.658 69.2694 482.118 67.2014 484.474 69.0514C486.923 70.9741 490.223 69.0259 492.949 68.9242C494.919 71.5047 494.072 72.8095 498.001 76.9021C499.045 77.9888 500.778 78.832 501.356 80.0423C503.86 85.2543 502.49 95.5657 508.098 99.7163C509.872 101.025 510.515 100.952 512.805 101.65C512.696 110.678 515.982 104.91 517.897 104.518C518.446 105.117 518.722 105.844 519.14 106.491C520.405 108.447 521.859 109.791 523.945 111.125C527.144 113.172 529.513 113.855 533.737 113.266C534.46 115.927 534.395 118.144 534.925 120.684C535.576 123.781 537.2 123.596 536.724 127.652C536.394 130.454 538.702 134.87 539.955 137.454C540.813 139.224 540.762 139.01 540.377 141.147C539.585 145.527 536.964 151.149 536.761 154.893C536.644 157.041 537.226 156.939 534.878 159.309C533.871 160.323 529.895 164.663 530.876 166.033C531.763 166.803 533.122 166.356 534.329 166.218C533.951 167.487 532.883 168.181 532.436 169.366C534.133 170.645 545.127 170.5 547.501 169.206C551.172 167.203 547.875 161.795 549.551 160.141C550.568 159.131 552.044 159.938 552.622 157.561C553.12 155.529 552.084 149.448 551.931 146.908C551.71 143.288 551.644 139.66 551.539 136.04C551.473 133.936 551.019 132.493 551.997 130.927C555.014 126.107 553.84 122.44 555.388 116.922C556.253 113.84 557.289 110.9 557.55 107.498C561.37 104.965 566.015 103.18 571.246 101.752C574.579 100.839 575.927 100.738 579.492 101.247C582.287 101.65 585.166 102.192 587.903 102.726C590.767 103.289 602.19 105.277 604.011 106.099C609.238 108.458 612.211 109.988 618.553 111.056L618.386 114.509C619.76 116.003 623.762 116.846 624.776 114.618C626.39 111.064 627.451 108.712 630.747 106.757C631.503 106.306 639.572 104.201 641.368 103.544C644.599 102.362 647.866 100.908 650.189 98.5242C652.195 96.467 654.983 93.4649 657.258 91.7675C659.864 89.823 659.897 89.754 663.757 89.147C665.203 94.4535 665.985 98.6551 669.652 102.719C671.175 104.405 670.811 105.034 671.429 107.64C673.759 117.46 675.598 110.831 677.495 127.801C678.64 138.018 676.409 145.872 671.742 154.042C670.575 156.089 669.866 155.998 668.493 157.503C667.755 158.313 664.287 164.764 663.848 165.993C669.096 168.326 677.83 167.414 679.614 165.055C679.971 164.583 681.221 160.926 681.446 160.141C685.688 159.494 684.347 158.193 685.764 155.067C687.589 151.048 689.261 144.923 690.064 140.478C690.307 139.141 690.522 137.68 690.536 136.251C690.558 134.034 690.129 133.754 691.812 132.784C694.411 139.461 694.829 151.804 691.459 158.669C690.111 161.421 688.065 163.234 686.2 165.568C685.408 166.56 684.019 168.054 684.085 169.628C687.923 170.096 700.895 172.183 703.039 167.309C703.661 165.902 703.025 161.77 703.355 159.872C709.832 159.447 707.953 156.43 707.197 151.953C706.485 147.758 706.296 143.299 706.223 138.973L706.11 117.181C706.307 116.214 706.601 116.025 706.721 115.003C706.877 113.659 707.008 112.964 708.088 112.655C708.142 118.075 705.765 118.551 706.696 121.233C707.183 122.632 707.303 122.465 708.222 123.25C708.386 126.329 707.728 126.95 708.793 130.054C708.695 125.111 709.443 120.866 709.999 115.883C710.483 117.257 710.032 117.046 710.846 118.551C712.122 120.902 709.407 125.446 712.046 127.677C711.206 122.669 711.733 124.054 711.737 119.47C711.74 117.635 710.218 115.727 712.224 112.379C714.412 114.153 711.432 117.784 712.845 120.728L713.543 121.847C713.162 119.016 712.773 120.045 713.649 117.122C714.121 115.538 714.201 113.742 714.001 112.038C713.809 110.384 713.162 108.763 713.696 107.127C713.918 106.451 714.292 105.931 714.579 105.259C714.844 104.634 714.913 103.485 715.157 102.995C716.883 105.772 712.38 111.958 715.778 114.444C715.251 112.001 715.524 110.947 715.957 108.523C716.469 105.659 716.284 104.867 716.196 102.075C716.146 100.305 716.894 97.6555 716.963 95.5766C717.101 91.3205 716.098 91.9929 715.204 90.0811C713.721 86.9153 715.571 81.1255 714.277 77.1638C713.252 74.0126 712.406 69.0077 711.671 65.5222C709.825 56.7774 712.129 47.6255 711.853 38.5572C711.62 30.9791 709.876 20.9658 707.255 14.6017C702.887 3.97777 691.183 -1.83756 679.771 0.8702C677.895 1.31725 676.049 2.26951 674.333 2.54211C664.095 4.17767 653.078 4.41755 643.218 7.08897C638.398 8.39742 636.973 9.04438 631.66 9.80038C623.878 10.9053 615.264 11.4323 608.046 14.4599C599.759 17.9382 577.319 17.2985 568.93 15.8447C558.906 14.1074 555.228 11.8721 544.099 12.181C539.981 12.2973 529.611 7.23435 521.048 6.63465C514.604 6.18396 513.492 7.38338 508.324 8.03397C506.172 8.30293 504.046 8.26295 501.85 8.66638C498.063 9.35696 499.415 9.25519 495.461 9.09163C492.215 8.95352 491.961 9.29881 489.787 10.4764C488.879 10.9707 485.197 9.84036 483.914 9.71678C477.593 9.10981 475.532 12.4682 471.796 15.3068C467.704 18.4143 469.285 17.8183 463.604 17.9019C461.416 17.9309 459.242 17.6874 457.389 16.8951C455.717 16.1863 453.834 15.1105 451.693 15.9574C449.934 16.6479 449.48 18.8977 450.098 20.8132C451.054 23.7608 456.396 31.0409 461.521 30.8228Z" fill="#C8B66F"/>
<path d="M558.313 322.328H537.625V163.617H556.881V181.986C561.86 174.895 567.276 169.774 573.186 166.47C579.052 163.173 585.947 161.447 593.776 161.251L593.925 183.418C581.218 184.548 572.055 188.394 566.582 194.892C561.068 201.398 558.313 211.939 558.313 226.568V322.328Z" fill="#F6EECB"/>
<path d="M372.359 163.621H392.455V247.853C392.455 269.478 395.955 284.795 402.995 293.765C409.992 302.779 421.564 307.26 437.629 307.26C446.788 307.26 454.817 305.388 461.716 301.692C468.661 297.999 474.222 292.631 478.46 285.638C480.874 281.498 482.6 276.62 483.687 271.005C484.719 265.339 485.257 255.587 485.257 241.648V163.621H505.65V322.333H485.257V305.09C479.1 312.628 472.205 318.044 464.62 321.399C457.031 324.797 447.824 326.469 437.033 326.469C414.132 326.469 397.627 320.312 387.53 307.951C377.433 295.586 372.359 275.043 372.359 246.377V163.621Z" fill="#F6EECB"/>
<path d="M185.281 243.123C185.281 219.825 193.259 199.922 209.219 183.421C225.182 166.869 244.096 158.593 265.914 158.593C288.921 158.593 308.526 166.724 324.733 182.981C340.943 199.235 349.019 218.593 349.019 241.106C349.019 264.749 341.089 284.946 325.224 301.691C309.362 318.392 290.103 326.766 267.496 326.766C244.54 326.766 225.084 318.591 209.171 302.189C193.259 285.786 185.281 266.075 185.281 243.123ZM206.562 242.73C206.562 261.056 212.373 276.368 224.051 288.737C235.675 301.102 250.206 307.259 267.496 307.259C284.538 307.259 298.869 301.102 310.398 288.737C321.978 276.368 327.739 260.954 327.739 242.483C327.739 223.714 321.88 208.296 310.202 196.226C298.477 184.159 283.651 178.104 265.624 178.104C249.464 178.104 235.577 184.308 223.95 196.724C212.373 209.136 206.562 224.456 206.562 242.73Z" fill="#F6EECB"/>
<path d="M22.1335 241.592C22.1335 260.164 28.0433 275.68 39.8194 288.191C51.6427 300.701 65.8284 306.956 82.4785 306.956C98.1908 306.956 112.031 300.701 124.098 288.143C136.118 275.582 142.129 260.848 142.129 243.907C142.129 225.829 136.216 210.363 124.349 197.602C112.526 184.798 98.5833 178.39 82.4785 178.39C65.9266 178.39 51.7408 184.5 39.9175 196.668C28.0433 208.837 22.1335 223.811 22.1335 241.592ZM36.3193 335.331C39.4232 344.541 44.9914 351.734 53.0674 356.855C61.1507 362.027 70.9496 364.59 82.5257 364.59C100.6 364.59 115.135 358.582 126.021 346.511C136.957 334.495 142.424 318.438 142.424 298.288V294.101C134.737 304.594 125.97 312.524 116.171 317.845C106.321 323.214 95.5339 325.874 83.707 325.874C59.8168 325.874 40.0156 317.893 24.2052 301.98C8.43837 286.072 0.558594 266.22 0.558594 242.479C0.558594 219.083 8.34387 199.478 23.9544 183.569C39.5213 167.704 58.8319 159.774 81.7879 159.774C95.185 159.774 106.761 162.191 116.513 166.963C126.264 171.79 134.94 179.277 142.424 189.523V163.615H162.225V295.972C162.225 323.708 155.283 345.381 141.388 360.991C127.5 376.609 108.342 384.395 83.9032 384.395C65.9266 384.395 50.5087 379.957 37.6023 371.045C24.7467 362.129 16.4199 350.259 12.6763 335.331H36.3193Z" fill="#F6EECB"/>
<path d="M915.092 254.649C916.324 266.077 920.907 275.145 928.739 281.691C936.518 288.291 946.669 291.595 959.03 291.595C967.31 291.595 974.75 289.872 981.346 286.372C987.896 282.926 993.119 278.045 996.961 271.794H1036.86C1030.11 289.083 1020.06 302.528 1006.62 312.134C993.217 321.693 977.701 326.469 960.07 326.469C948.246 326.469 937.357 324.401 927.406 320.214C917.458 316.03 908.538 309.819 900.608 301.645C893.121 293.863 887.309 284.845 883.173 274.6C879.037 264.405 876.965 253.861 876.965 243.124C876.965 232.042 878.888 221.647 882.682 211.896C886.469 202.141 892.088 193.374 899.481 185.589C907.557 177.022 916.72 170.418 926.919 165.835C937.114 161.204 947.603 158.889 958.489 158.889C972.235 158.889 985.09 161.993 997.012 168.252C1008.93 174.503 1019.08 183.321 1027.45 194.653C1032.58 201.501 1036.32 209.137 1038.78 217.609C1041.24 226.031 1042.48 235.735 1042.48 246.719C1042.48 247.558 1042.43 248.885 1042.33 250.659C1042.23 252.48 1042.18 253.763 1042.18 254.649H915.092ZM1002.58 225.391C999.421 214.796 994.104 206.72 986.667 201.206C979.231 195.638 969.821 192.88 958.489 192.88C948.686 192.88 939.872 195.889 932.087 201.842C924.305 207.807 919.082 215.639 916.375 225.391H1002.58Z" fill="#C8B66F"/>
<path d="M1187.6 322.332V302.825C1183.16 310.705 1176.96 316.52 1168.93 320.263C1160.9 324.007 1150.65 325.879 1138.14 325.879C1114.69 325.879 1095.09 317.85 1079.38 301.84C1063.66 285.833 1055.78 265.93 1055.78 242.185C1055.78 231.009 1057.75 220.414 1061.69 210.412C1065.63 200.417 1071.24 191.596 1078.58 184.01C1086.47 175.64 1095.18 169.483 1104.79 165.492C1114.45 161.501 1125.23 159.48 1137.25 159.48C1148.78 159.48 1158.73 161.403 1167.05 165.245C1175.38 169.134 1182.08 174.946 1187.15 182.731V163.62H1223.36V322.332H1187.6ZM1093.61 241.597C1093.61 254.943 1098.04 266.126 1106.96 275.144C1115.82 284.158 1126.66 288.635 1139.47 288.635C1151.09 288.635 1161.29 284.107 1170.16 275.089C1178.97 266.028 1183.41 255.437 1183.41 243.323C1183.41 230.413 1178.97 219.335 1170.06 210.07C1161.19 200.762 1150.8 196.132 1138.88 196.132C1126.37 196.132 1115.73 200.515 1106.86 209.332C1098.04 218.146 1093.61 228.886 1093.61 241.597Z" fill="#C8B66F"/>
<path fill-rule="evenodd" clip-rule="evenodd" d="M1393.33 170.439C1410.57 167.673 1429.56 170.642 1445.23 174.371C1464.07 178.853 1482.53 183.145 1498.53 192.66C1513.94 201.823 1526.65 216.631 1534 243.392C1494.46 230.58 1474.2 260.729 1445.85 252.722C1415.6 244.184 1391.74 219.804 1368.53 198.501C1337.84 189.684 1288.75 191.534 1259.06 195.721C1022.54 229.09 876.024 410.427 742.042 418.663C653.042 424.129 611.953 369.454 612.124 295.225L612.105 163.617H648.317V181.593C653.689 174.404 659.889 169.036 666.835 165.586C673.832 162.09 681.762 160.367 690.725 160.367C703.53 160.367 714.47 162.632 723.531 167.167C732.646 171.696 740.479 178.74 746.974 188.35C753.236 178.936 760.28 171.892 768.062 167.313C775.843 162.682 784.461 160.367 793.875 160.367C813.276 160.367 828.207 166.473 838.598 178.693C848.993 190.905 854.169 208.445 854.169 231.198V322.332H817.816V251.984C817.816 230.46 815.442 215.787 810.666 208.049C805.894 200.315 797.662 196.422 785.944 196.422C773.724 196.422 765.005 200.762 759.786 209.478C754.516 218.197 751.906 233.121 751.906 254.299V322.332H715.255V251.984C715.255 230.562 712.842 215.929 707.968 208.097C703.09 200.315 694.621 196.422 682.5 196.422C670.182 196.422 661.281 200.795 655.942 209.478C650.607 218.161 647.833 233.19 647.866 254.299L647.91 277.328C647.91 349.678 663.673 417.499 809.398 374.135C962.025 328.728 1055.16 224.416 1226.54 170.609C1295.8 148.864 1354.52 159.371 1393.33 170.439Z" fill="#C8B66F"/>
<path d="M1267.1 322.336V196.43V163.625V112.199H1304.04V163.625V196.43V322.336H1267.1Z" fill="#C8B66F"/>
<path d="M1053.65 346.743V442.711C1053.65 444.005 1052.64 445.012 1051.35 445.012H1030.8C1029.51 445.012 1028.65 444.005 1028.65 442.711V392.572L1026.93 398.46L1010.26 443.14C1009.83 444.288 1008.82 445.012 1007.68 445.012H990.005C988.853 445.012 987.704 444.288 987.276 443.14L970.753 398.46L969.03 392.572V442.711C969.03 444.005 968.023 445.012 966.729 445.012H946.19C944.896 445.012 944.031 444.005 944.031 442.711V346.743C944.031 345.45 944.896 344.446 946.19 344.446H969.317C970.466 344.446 971.472 344.879 971.901 345.882L998.768 415.99L1025.78 345.882C1026.21 344.879 1027.07 344.446 1028.22 344.446H1051.35C1052.64 344.446 1053.65 345.45 1053.65 346.743Z" fill="#3C1634" stroke="#201421" stroke-miterlimit="10"/>
<path d="M1128.92 409.095L1118.72 376.344L1108.52 409.095H1128.92ZM1163.54 445.012H1142.13C1140.99 445.012 1139.98 444.579 1139.55 443.285L1135.81 431.218H1101.48L1097.74 443.285C1097.31 444.579 1096.45 445.012 1095.3 445.012H1073.89C1072.31 445.012 1071.45 444.005 1072.03 442.569L1105.07 346.173C1105.5 345.024 1106.65 344.446 1107.8 344.446H1129.49C1130.64 344.446 1131.93 345.024 1132.36 346.173L1165.41 442.569C1165.98 444.005 1165.12 445.012 1163.54 445.012Z" fill="#3C1634" stroke="#201421" stroke-miterlimit="10"/>
<path d="M1364.66 445.012H1340.66C1339.52 445.012 1338.8 444.725 1338.08 443.721L1313.66 407.946L1303.89 420.3V442.715C1303.89 444.009 1302.88 445.012 1301.59 445.012H1281.05C1279.75 445.012 1278.89 444.009 1278.89 442.715V346.743C1278.89 345.45 1279.75 344.446 1281.05 344.446H1301.59C1302.88 344.446 1303.89 345.45 1303.89 346.743V386.255L1333.19 345.595C1333.91 344.737 1334.78 344.446 1335.78 344.446H1360.78C1362.65 344.446 1362.79 345.886 1361.93 347.034L1329.03 388.552L1365.95 442.428C1366.95 443.863 1366.38 445.012 1364.66 445.012Z" fill="#3C1634" stroke="#201421" stroke-miterlimit="10"/>
<path d="M1384.92 442.715V346.747C1384.92 345.453 1385.78 344.446 1387.07 344.446H1439.65C1440.95 344.446 1441.81 345.453 1441.81 346.747V364.273C1441.81 365.567 1440.95 366.574 1439.65 366.574H1409.92V383.38H1437.78C1439.08 383.38 1440.08 384.39 1440.08 385.677V403.348C1440.08 404.642 1439.08 405.504 1437.78 405.504H1409.92V422.888H1439.51C1440.8 422.888 1441.81 423.895 1441.81 425.189V442.715C1441.81 444.009 1440.8 445.012 1439.51 445.012H1387.07C1385.78 445.012 1384.92 444.009 1384.92 442.715Z" fill="#3C1634" stroke="#201421" stroke-miterlimit="10"/>
<path d="M1482.75 442.715V366.574H1463.93C1462.64 366.574 1461.78 365.567 1461.78 364.273V346.747C1461.78 345.453 1462.64 344.446 1463.93 344.446H1526.42C1527.72 344.446 1528.72 345.453 1528.72 346.747V364.273C1528.72 365.567 1527.72 366.574 1526.42 366.574H1507.75V442.715C1507.75 444.009 1506.74 445.012 1505.45 445.012H1484.9C1483.61 445.012 1482.75 444.009 1482.75 442.715Z" fill="#3C1634" stroke="#201421" stroke-miterlimit="10"/>
<path d="M1209.65 388.977H1217.84C1224.45 388.977 1230.91 387.25 1230.91 377.768C1230.91 368.289 1224.45 366.562 1217.84 366.562H1209.65V388.977ZM1257.06 445.004H1235.22C1234.08 445.004 1233.21 444.568 1232.64 443.565L1212.81 411.097H1209.65V442.703C1209.65 443.997 1208.65 445.004 1207.35 445.004H1186.81C1185.52 445.004 1184.66 443.997 1184.66 442.703V346.736C1184.66 345.442 1185.52 344.439 1186.81 344.439H1218.42C1243.13 344.439 1254.76 357.945 1254.76 377.768C1254.76 391.703 1249.02 402.625 1236.81 407.793L1258.5 442.416C1259.5 443.997 1258.78 445.004 1257.06 445.004Z" fill="#3C1634" stroke="#201421" stroke-miterlimit="10"/>
</svg>
