<svg width="910" height="720" viewBox="0 0 910 720" fill="none" xmlns="http://www.w3.org/2000/svg">
<path fill-rule="evenodd" clip-rule="evenodd" d="M899.639 582.245C897.76 583.26 900.3 588.185 898.512 589.011C895.145 590.568 889.171 584.974 886.158 585.914C882.138 587.147 881.184 594.725 877.682 595.026C855.003 597.048 841.989 580.99 827.133 566.999C781.152 523.703 733.735 481.955 686.628 439.87C683.284 436.893 675.491 425.593 664.039 430.946C621.215 480.173 578.984 534.04 531.064 582.253C484.956 628.684 432.438 666.808 364.583 679.641C327.132 686.715 290.514 713.577 255.129 710.833C227.829 708.765 197.073 735.274 171.238 706.518C169.352 704.375 158.584 709.57 152.271 711.637C126.655 719.99 122.312 711.916 107.065 707.202C84.2438 705.984 61.8812 735.687 38.3085 701.368C34.9722 696.519 18.553 700.684 0 700.684C11.6248 687.813 17.7414 677.994 26.4806 671.792C131.351 597.544 236.162 523.177 342.063 450.493C365.59 434.382 394.392 423.157 408.069 408.109C421.746 393.062 427.19 387.615 437.87 363.051C444.911 346.858 435.309 315.199 419.431 290.878C398.729 259.19 379.522 224.622 334.135 227.471C346.759 216.442 359.699 204.933 372.902 193.723C401.103 169.801 440.524 168.816 473.444 186.16C500.631 200.527 555.903 235.162 555.903 235.162C555.903 235.162 608.959 188.182 631.367 158.261C668.323 99.0566 697.381 61.1738 739.439 20.1256C749.93 9.8335 758.293 2.73651 781.603 0C785.691 10.2094 790.582 20.216 794.46 30.478C795.925 34.4175 797.255 38.3865 798.315 42.4387C799.758 47.9344 800.915 53.3474 801.817 58.7228C803.094 66.3535 803.838 73.8639 804.116 81.2616C804.484 92.0123 803.883 102.538 802.463 112.883C796.489 155.788 776.313 195.52 754.649 235.162C737.44 266.573 723.568 299.877 709.719 332.949C707.134 339.129 709.471 350.075 713.627 355.856C757.519 416.925 795.054 482.895 860.91 525.973C878.088 537.243 919.334 562.766 908.085 581.591C907.13 583.193 905.305 576.238 899.639 582.245Z" fill="#6C1E73"/>
<path fill-rule="evenodd" clip-rule="evenodd" d="M899.639 582.245C897.76 583.26 900.3 588.185 898.512 589.011C895.145 590.568 889.171 584.974 886.158 585.914C882.138 587.147 881.184 594.725 877.682 595.026C855.003 597.048 841.989 580.99 827.133 566.999C781.152 523.703 733.735 481.955 686.628 439.87C683.284 436.893 675.491 425.593 664.039 430.946C621.215 480.173 578.984 534.04 531.064 582.253C484.956 628.684 432.438 666.808 364.583 679.641C327.132 686.715 290.514 713.577 255.129 710.833C227.829 708.765 197.073 735.274 171.238 706.518C169.352 704.375 158.584 709.57 152.271 711.637C126.655 719.99 122.312 711.916 107.065 707.202C84.2438 705.984 61.8812 735.687 38.3085 701.368C34.9722 696.519 18.553 700.684 0 700.684C11.6248 687.813 17.7414 677.994 26.4806 671.792C131.351 597.544 236.162 523.177 342.063 450.493C365.59 434.382 394.392 423.157 408.069 408.109C421.746 393.062 427.19 387.615 437.87 363.051C444.911 346.858 435.309 315.199 419.431 290.878C398.729 259.19 379.522 224.622 334.135 227.471C346.759 216.442 359.699 204.933 372.902 193.723C401.103 169.801 440.524 168.816 473.444 186.16C500.631 200.527 555.903 235.162 555.903 235.162C555.903 235.162 608.959 188.182 631.367 158.261C668.323 99.0566 697.381 61.1738 739.439 20.1256C749.93 9.8335 758.293 2.73651 781.603 0C785.691 10.2094 790.582 20.216 794.46 30.478C795.925 34.4175 797.255 38.3865 798.315 42.4387C799.758 47.9344 800.915 53.3474 801.817 58.7228C803.094 66.3535 803.838 73.8639 804.116 81.2616C804.484 92.0123 803.883 102.538 802.463 112.883C796.489 155.788 776.313 195.52 754.649 235.162C737.44 266.573 723.568 299.877 709.719 332.949C707.134 339.129 709.471 350.075 713.627 355.856C757.519 416.925 795.054 482.895 860.91 525.973C878.088 537.243 919.334 562.766 908.085 581.591C907.13 583.193 905.305 576.238 899.639 582.245Z" fill="black" fill-opacity="0.1"/>
<path fill-rule="evenodd" clip-rule="evenodd" d="M899.639 582.245C897.76 583.26 900.3 588.185 898.512 589.011C895.145 590.568 889.171 584.974 886.158 585.914C882.138 587.147 881.184 594.725 877.682 595.026C855.003 597.048 841.989 580.99 827.133 566.999C781.152 523.703 733.735 481.955 686.628 439.87C683.284 436.893 675.491 425.593 664.039 430.946C621.215 480.173 578.984 534.04 531.064 582.253C484.956 628.684 432.438 666.808 364.583 679.641C327.132 686.715 290.514 713.577 255.129 710.833C227.829 708.765 197.073 735.274 171.238 706.518C169.352 704.375 158.584 709.57 152.271 711.637C126.655 719.99 122.312 711.916 107.065 707.202C84.2438 705.984 61.8812 735.687 38.3085 701.368C34.9722 696.519 18.553 700.684 0 700.684C11.6248 687.813 17.7414 677.994 26.4806 671.792C131.351 597.544 236.162 523.177 342.063 450.493C365.59 434.382 394.392 423.157 408.069 408.109C421.746 393.062 427.19 387.615 437.87 363.051C444.911 346.858 435.309 315.199 419.431 290.878C398.729 259.19 379.522 224.622 334.135 227.471C346.759 216.442 359.699 204.933 372.902 193.723C401.103 169.801 440.524 168.816 473.444 186.16C500.631 200.527 555.903 235.162 555.903 235.162C555.903 235.162 608.959 188.182 631.367 158.261C668.323 99.0566 697.381 61.1738 739.439 20.1256C749.93 9.8335 758.293 2.73651 781.603 0C785.691 10.2094 790.582 20.216 794.46 30.478C795.925 34.4175 797.255 38.3865 798.315 42.4387C799.758 47.9344 800.915 53.3474 801.817 58.7228C803.094 66.3535 803.838 73.8639 804.116 81.2616C804.484 92.0123 803.883 102.538 802.463 112.883C796.489 155.788 776.313 195.52 754.649 235.162C737.44 266.573 723.568 299.877 709.719 332.949C707.134 339.129 709.471 350.075 713.627 355.856C757.519 416.925 795.054 482.895 860.91 525.973C878.088 537.243 919.334 562.766 908.085 581.591C907.13 583.193 905.305 576.238 899.639 582.245Z" fill="url(#paint0_linear_1609_14)" fill-opacity="0.2"/>
<path fill-rule="evenodd" clip-rule="evenodd" d="M899.639 582.245C897.76 583.26 900.3 588.185 898.512 589.011C895.145 590.568 889.171 584.974 886.158 585.914C882.138 587.147 881.184 594.725 877.682 595.026C855.003 597.048 841.989 580.99 827.133 566.999C781.152 523.703 733.735 481.955 686.628 439.87C683.284 436.893 675.491 425.593 664.039 430.946C621.215 480.173 578.984 534.04 531.064 582.253C484.956 628.684 432.438 666.808 364.583 679.641C327.132 686.715 290.514 713.577 255.129 710.833C227.829 708.765 197.073 735.274 171.238 706.518C169.352 704.375 158.584 709.57 152.271 711.637C126.655 719.99 122.312 711.916 107.065 707.202C84.2438 705.984 61.8812 735.687 38.3085 701.368C34.9722 696.519 18.553 700.684 0 700.684C11.6248 687.813 17.7414 677.994 26.4806 671.792C131.351 597.544 236.162 523.177 342.063 450.493C365.59 434.382 394.392 423.157 408.069 408.109C421.746 393.062 427.19 387.615 437.87 363.051C444.911 346.858 435.309 315.199 419.431 290.878C398.729 259.19 379.522 224.622 334.135 227.471C346.759 216.442 359.699 204.933 372.902 193.723C401.103 169.801 440.524 168.816 473.444 186.16C500.631 200.527 555.903 235.162 555.903 235.162C555.903 235.162 608.959 188.182 631.367 158.261C668.323 99.0566 697.381 61.1738 739.439 20.1256C749.93 9.8335 758.293 2.73651 781.603 0C785.691 10.2094 790.582 20.216 794.46 30.478C795.925 34.4175 797.255 38.3865 798.315 42.4387C799.758 47.9344 800.915 53.3474 801.817 58.7228C803.094 66.3535 803.838 73.8639 804.116 81.2616C804.484 92.0123 803.883 102.538 802.463 112.883C796.489 155.788 776.313 195.52 754.649 235.162C737.44 266.573 723.568 299.877 709.719 332.949C707.134 339.129 709.471 350.075 713.627 355.856C757.519 416.925 795.054 482.895 860.91 525.973C878.088 537.243 919.334 562.766 908.085 581.591C907.13 583.193 905.305 576.238 899.639 582.245Z" fill="url(#paint1_linear_1609_14)" fill-opacity="0.2"/>
<defs>
<linearGradient id="paint0_linear_1609_14" x1="954.953" y1="689.208" x2="-143.302" y2="375.021" gradientUnits="userSpaceOnUse">
<stop stop-color="#1060D8" stop-opacity="0"/>
<stop offset="1" stop-color="#7120F7"/>
</linearGradient>
<linearGradient id="paint1_linear_1609_14" x1="455" y1="720" x2="455" y2="0" gradientUnits="userSpaceOnUse">
<stop stop-color="#842D57"/>
<stop offset="1" stop-color="#FEFCFD" stop-opacity="0"/>
</linearGradient>
</defs>
</svg>
