<svg width="347" height="347" viewBox="0 0 347 347" fill="none" xmlns="http://www.w3.org/2000/svg">
<path d="M251.238 0L95.7574 0C42.9568 0 0 42.9589 0 95.7595L0 251.241C0 304.043 42.9568 347 95.7574 347H251.238C304.043 347 347 304.041 347 251.241V95.7595C347.002 42.9589 304.043 0 251.238 0ZM316.215 251.241C316.215 287.067 287.067 316.212 251.241 316.212H95.7574C59.933 316.215 30.7875 287.067 30.7875 251.241V95.7595C30.7875 59.9351 59.933 30.7875 95.7574 30.7875H251.238C287.065 30.7875 316.212 59.9351 316.212 95.7595V251.241H316.215Z" fill="#6C1E73"/>
<path d="M251.238 0L95.7574 0C42.9568 0 0 42.9589 0 95.7595L0 251.241C0 304.043 42.9568 347 95.7574 347H251.238C304.043 347 347 304.041 347 251.241V95.7595C347.002 42.9589 304.043 0 251.238 0ZM316.215 251.241C316.215 287.067 287.067 316.212 251.241 316.212H95.7574C59.933 316.215 30.7875 287.067 30.7875 251.241V95.7595C30.7875 59.9351 59.933 30.7875 95.7574 30.7875H251.238C287.065 30.7875 316.212 59.9351 316.212 95.7595V251.241H316.215Z" fill="black" fill-opacity="0.1"/>
<path d="M251.238 0L95.7574 0C42.9568 0 0 42.9589 0 95.7595L0 251.241C0 304.043 42.9568 347 95.7574 347H251.238C304.043 347 347 304.041 347 251.241V95.7595C347.002 42.9589 304.043 0 251.238 0ZM316.215 251.241C316.215 287.067 287.067 316.212 251.241 316.212H95.7574C59.933 316.215 30.7875 287.067 30.7875 251.241V95.7595C30.7875 59.9351 59.933 30.7875 95.7574 30.7875H251.238C287.065 30.7875 316.212 59.9351 316.212 95.7595V251.241H316.215Z" fill="url(#paint0_linear_101_2)" fill-opacity="0.2"/>
<path d="M251.238 0L95.7574 0C42.9568 0 0 42.9589 0 95.7595L0 251.241C0 304.043 42.9568 347 95.7574 347H251.238C304.043 347 347 304.041 347 251.241V95.7595C347.002 42.9589 304.043 0 251.238 0ZM316.215 251.241C316.215 287.067 287.067 316.212 251.241 316.212H95.7574C59.933 316.215 30.7875 287.067 30.7875 251.241V95.7595C30.7875 59.9351 59.933 30.7875 95.7574 30.7875H251.238C287.065 30.7875 316.212 59.9351 316.212 95.7595V251.241H316.215Z" fill="url(#paint1_linear_101_2)" fill-opacity="0.2"/>
<path d="M173.493 84.0938C124.19 84.0938 84.0801 124.204 84.0801 173.507C84.0801 222.808 124.19 262.916 173.493 262.916C222.796 262.916 262.906 222.808 262.906 173.507C262.906 124.204 222.796 84.0938 173.493 84.0938ZM173.493 232.126C141.168 232.126 114.868 205.83 114.868 173.505C114.868 141.178 141.166 114.879 173.493 114.879C205.82 114.879 232.119 141.178 232.119 173.505C232.119 205.83 205.818 232.126 173.493 232.126Z" fill="#6C1E73"/>
<path d="M173.493 84.0938C124.19 84.0938 84.0801 124.204 84.0801 173.507C84.0801 222.808 124.19 262.916 173.493 262.916C222.796 262.916 262.906 222.808 262.906 173.507C262.906 124.204 222.796 84.0938 173.493 84.0938ZM173.493 232.126C141.168 232.126 114.868 205.83 114.868 173.505C114.868 141.178 141.166 114.879 173.493 114.879C205.82 114.879 232.119 141.178 232.119 173.505C232.119 205.83 205.818 232.126 173.493 232.126Z" fill="black" fill-opacity="0.1"/>
<path d="M173.493 84.0938C124.19 84.0938 84.0801 124.204 84.0801 173.507C84.0801 222.808 124.19 262.916 173.493 262.916C222.796 262.916 262.906 222.808 262.906 173.507C262.906 124.204 222.796 84.0938 173.493 84.0938ZM173.493 232.126C141.168 232.126 114.868 205.83 114.868 173.505C114.868 141.178 141.166 114.879 173.493 114.879C205.82 114.879 232.119 141.178 232.119 173.505C232.119 205.83 205.818 232.126 173.493 232.126Z" fill="url(#paint2_linear_101_2)" fill-opacity="0.2"/>
<path d="M173.493 84.0938C124.19 84.0938 84.0801 124.204 84.0801 173.507C84.0801 222.808 124.19 262.916 173.493 262.916C222.796 262.916 262.906 222.808 262.906 173.507C262.906 124.204 222.796 84.0938 173.493 84.0938ZM173.493 232.126C141.168 232.126 114.868 205.83 114.868 173.505C114.868 141.178 141.166 114.879 173.493 114.879C205.82 114.879 232.119 141.178 232.119 173.505C232.119 205.83 205.818 232.126 173.493 232.126Z" fill="url(#paint3_linear_101_2)" fill-opacity="0.2"/>
<path d="M266.663 57.9844C260.732 57.9844 254.905 60.3858 250.716 64.5934C246.506 68.7805 244.086 74.6096 244.086 80.5619C244.086 86.4957 246.508 92.3227 250.716 96.5303C254.903 100.717 260.732 103.139 266.663 103.139C272.616 103.139 278.424 100.717 282.632 96.5303C286.84 92.3227 289.241 86.4936 289.241 80.5619C289.241 74.6096 286.84 68.7805 282.632 64.5934C278.445 60.3858 272.616 57.9844 266.663 57.9844Z" fill="#6C1E73"/>
<path d="M266.663 57.9844C260.732 57.9844 254.905 60.3858 250.716 64.5934C246.506 68.7805 244.086 74.6096 244.086 80.5619C244.086 86.4957 246.508 92.3227 250.716 96.5303C254.903 100.717 260.732 103.139 266.663 103.139C272.616 103.139 278.424 100.717 282.632 96.5303C286.84 92.3227 289.241 86.4936 289.241 80.5619C289.241 74.6096 286.84 68.7805 282.632 64.5934C278.445 60.3858 272.616 57.9844 266.663 57.9844Z" fill="black" fill-opacity="0.1"/>
<path d="M266.663 57.9844C260.732 57.9844 254.905 60.3858 250.716 64.5934C246.506 68.7805 244.086 74.6096 244.086 80.5619C244.086 86.4957 246.508 92.3227 250.716 96.5303C254.903 100.717 260.732 103.139 266.663 103.139C272.616 103.139 278.424 100.717 282.632 96.5303C286.84 92.3227 289.241 86.4936 289.241 80.5619C289.241 74.6096 286.84 68.7805 282.632 64.5934C278.445 60.3858 272.616 57.9844 266.663 57.9844Z" fill="url(#paint4_linear_101_2)" fill-opacity="0.2"/>
<path d="M266.663 57.9844C260.732 57.9844 254.905 60.3858 250.716 64.5934C246.506 68.7805 244.086 74.6096 244.086 80.5619C244.086 86.4957 246.508 92.3227 250.716 96.5303C254.903 100.717 260.732 103.139 266.663 103.139C272.616 103.139 278.424 100.717 282.632 96.5303C286.84 92.3227 289.241 86.4936 289.241 80.5619C289.241 74.6096 286.84 68.7805 282.632 64.5934C278.445 60.3858 272.616 57.9844 266.663 57.9844Z" fill="url(#paint5_linear_101_2)" fill-opacity="0.2"/>
<defs>
<linearGradient id="paint0_linear_101_2" x1="364.141" y1="14.8402" x2="-66.8371" y2="112.391" gradientUnits="userSpaceOnUse">
<stop stop-color="#1060D8" stop-opacity="0"/>
<stop offset="1" stop-color="#7120F7"/>
</linearGradient>
<linearGradient id="paint1_linear_101_2" x1="173.5" y1="0" x2="173.5" y2="347" gradientUnits="userSpaceOnUse">
<stop stop-color="#842D57"/>
<stop offset="1" stop-color="#FEFCFD" stop-opacity="0"/>
</linearGradient>
<linearGradient id="paint2_linear_101_2" x1="271.74" y1="91.7415" x2="49.6361" y2="142.015" gradientUnits="userSpaceOnUse">
<stop stop-color="#1060D8" stop-opacity="0"/>
<stop offset="1" stop-color="#7120F7"/>
</linearGradient>
<linearGradient id="paint3_linear_101_2" x1="173.493" y1="84.0937" x2="173.493" y2="262.916" gradientUnits="userSpaceOnUse">
<stop stop-color="#842D57"/>
<stop offset="1" stop-color="#FEFCFD" stop-opacity="0"/>
</linearGradient>
<linearGradient id="paint4_linear_101_2" x1="291.472" y1="59.9155" x2="235.388" y2="72.6098" gradientUnits="userSpaceOnUse">
<stop stop-color="#1060D8" stop-opacity="0"/>
<stop offset="1" stop-color="#7120F7"/>
</linearGradient>
<linearGradient id="paint5_linear_101_2" x1="266.663" y1="57.9844" x2="266.663" y2="103.139" gradientUnits="userSpaceOnUse">
<stop stop-color="#842D57"/>
<stop offset="1" stop-color="#FEFCFD" stop-opacity="0"/>
</linearGradient>
</defs>
</svg>
