<svg width="325" height="325" viewBox="0 0 325 325" fill="none" xmlns="http://www.w3.org/2000/svg">
<path d="M307.051 0H17.9378C8.03777 0 0 8.02172 0 17.9378V307.052C0 316.968 8.03777 325 17.9378 325H173.588V199.141H131.237V150.085H173.588V113.909C173.588 71.9386 199.216 49.0722 236.665 49.0722C254.619 49.0722 270.015 50.4154 274.504 50.9987V94.8693L248.529 94.88C228.167 94.88 224.239 104.561 224.239 118.758V150.069H272.819L266.467 199.12H224.234V324.984H307.046C316.957 324.984 325 316.941 325 307.052V17.9271C324.995 8.02172 316.962 0 307.051 0Z" fill="#6C1E73"/>
<path d="M307.051 0H17.9378C8.03777 0 0 8.02172 0 17.9378V307.052C0 316.968 8.03777 325 17.9378 325H173.588V199.141H131.237V150.085H173.588V113.909C173.588 71.9386 199.216 49.0722 236.665 49.0722C254.619 49.0722 270.015 50.4154 274.504 50.9987V94.8693L248.529 94.88C228.167 94.88 224.239 104.561 224.239 118.758V150.069H272.819L266.467 199.12H224.234V324.984H307.046C316.957 324.984 325 316.941 325 307.052V17.9271C324.995 8.02172 316.962 0 307.051 0Z" fill="black" fill-opacity="0.1"/>
<path d="M307.051 0H17.9378C8.03777 0 0 8.02172 0 17.9378V307.052C0 316.968 8.03777 325 17.9378 325H173.588V199.141H131.237V150.085H173.588V113.909C173.588 71.9386 199.216 49.0722 236.665 49.0722C254.619 49.0722 270.015 50.4154 274.504 50.9987V94.8693L248.529 94.88C228.167 94.88 224.239 104.561 224.239 118.758V150.069H272.819L266.467 199.12H224.234V324.984H307.046C316.957 324.984 325 316.941 325 307.052V17.9271C324.995 8.02172 316.962 0 307.051 0Z" fill="url(#paint0_linear_1624_40)" fill-opacity="0.2"/>
<path d="M307.051 0H17.9378C8.03777 0 0 8.02172 0 17.9378V307.052C0 316.968 8.03777 325 17.9378 325H173.588V199.141H131.237V150.085H173.588V113.909C173.588 71.9386 199.216 49.0722 236.665 49.0722C254.619 49.0722 270.015 50.4154 274.504 50.9987V94.8693L248.529 94.88C228.167 94.88 224.239 104.561 224.239 118.758V150.069H272.819L266.467 199.12H224.234V324.984H307.046C316.957 324.984 325 316.941 325 307.052V17.9271C324.995 8.02172 316.962 0 307.051 0Z" fill="url(#paint1_linear_1624_40)" fill-opacity="0.2"/>
<defs>
<linearGradient id="paint0_linear_1624_40" x1="341.054" y1="13.8994" x2="-62.5996" y2="105.265" gradientUnits="userSpaceOnUse">
<stop stop-color="#1060D8" stop-opacity="0"/>
<stop offset="1" stop-color="#7120F7"/>
</linearGradient>
<linearGradient id="paint1_linear_1624_40" x1="162.5" y1="0" x2="162.5" y2="325" gradientUnits="userSpaceOnUse">
<stop stop-color="#842D57"/>
<stop offset="1" stop-color="#FEFCFD" stop-opacity="0"/>
</linearGradient>
</defs>
</svg>
