<svg width="750" height="799" viewBox="0 0 750 799" fill="none" xmlns="http://www.w3.org/2000/svg">
<g clip-path="url(#clip0_926_264)">
<path d="M159.357 796.085L154.519 793.18L154.812 727.575L155.105 661.969L215.773 653.467L276.441 644.965L281.394 647.597L286.348 650.229V716.032V781.835L282.655 782.461C278.113 783.231 165.634 799.015 164.797 799C164.466 799 162.018 797.682 159.357 796.085H159.357ZM468.431 796.085L463.593 793.18L463.886 727.575L464.179 661.969L524.848 653.467L585.516 644.965L590.469 647.597L595.422 650.229V716.032V781.835L591.729 782.461C587.188 783.231 474.709 799.015 473.871 799C473.54 799 471.093 797.682 468.431 796.085H468.431ZM541.448 764.457C549.124 762.403 555.978 758.764 561.385 753.872L565.878 749.805V730.02V710.235H562.971C560.053 710.235 545.946 712.117 541.164 713.144C538.805 713.65 538.607 714.316 538.607 721.745V729.797L544.289 729.014L549.97 728.232V735.635V743.038L545.066 745.416C538.143 748.773 527.756 748.688 522.687 745.233C515.428 740.284 514.177 737.415 514.177 725.712C514.177 715.974 514.437 714.758 517.616 709.607C519.731 706.18 523.168 702.727 526.544 700.636C531.282 697.702 533.143 697.234 540.149 697.216C545.685 697.216 549.41 697.813 551.863 699.141L555.459 701.089L560.7 694.025L565.941 686.96L563.353 684.965C558.339 681.099 550.368 679.254 540.501 679.675C532.739 680.007 529.896 680.701 523.613 683.801C505.077 692.944 493.975 714.888 497.492 735.43C499.169 745.227 501.732 750.375 508.042 756.622C516.549 765.044 528.648 767.882 541.448 764.457V764.457ZM622.968 796.435L618.13 794.001L618.424 727.952L618.718 661.903L678.765 653.487L738.811 645.071L744.386 647.687L749.961 650.302V715.994V781.685L746.268 782.343C741.527 783.187 628.847 799.034 628.254 798.94C628.011 798.9 625.631 797.774 622.97 796.435H622.968ZM662.03 769.832C665.212 769.284 665.777 768.546 667.577 762.59C669.858 755.047 667.677 755.994 690.005 752.839C697.34 751.802 704.06 751.23 704.938 751.567C705.817 751.905 707.284 754.395 708.198 757.101L709.861 762.021L717.685 761.689C721.988 761.507 725.907 760.959 726.395 760.471C726.882 759.983 720.264 741.517 711.689 719.436L696.097 679.289L688.655 680.065C684.562 680.492 680.841 681.196 680.385 681.628C679.93 682.061 672.944 701.095 664.861 723.925C656.778 746.756 649.598 766.903 648.906 768.698L647.648 771.96L653.068 771.201C656.048 770.784 660.081 770.167 662.03 769.832V769.832ZM677.728 734.605C678.086 733.176 680.627 725.699 683.375 717.99C687.214 707.218 688.572 704.502 689.245 706.251C697.889 728.735 699.611 733.609 698.992 733.833C698.588 733.98 693.492 734.798 687.667 735.652L677.076 737.205L677.728 734.605ZM4.82925 634.822L0 632.392V566.73V501.069L3.69298 500.411C5.72411 500.05 33.0535 496.145 64.4251 491.734L121.464 483.714L126.647 486.236L131.829 488.758L131.536 554.804L131.243 620.849L73.2915 629.048C41.4182 633.557 14.0617 637.248 12.4993 637.25C10.9369 637.251 7.4854 636.159 4.82925 634.822V634.822ZM56.6634 607.238C83.4555 603.196 92.0133 598.613 98.8289 584.656C102.934 576.249 104.54 568.382 104.54 556.668C104.54 533.899 95.4853 520.857 78.6398 519.364C72.894 518.855 39.62 522.834 37.2254 524.316C36.1036 525.01 36.0922 610.083 37.2119 610.061C37.6806 610.061 46.433 608.781 56.6614 607.238H56.6634ZM53.4061 564.82C53.4061 542.67 53.6221 539.673 55.2642 539.042C56.2862 538.649 61.5275 538.045 66.9114 537.699C75.5399 537.146 77.1462 537.354 80.4617 539.455C85.7656 542.816 87.9137 548.52 87.9844 559.43C88.0557 570.513 85.5635 577.813 80.0504 582.661C75.7639 586.431 71.1985 587.937 60.508 589.107L53.4061 589.885V564.82ZM159.366 634.822L154.537 632.392V566.73V501.069L158.23 500.411C160.261 500.05 187.591 496.145 218.962 491.734L276.001 483.714L281.184 486.236L286.366 488.758L286.073 554.804L285.78 620.849L227.829 629.048C195.955 633.557 168.599 637.248 167.036 637.25C165.474 637.251 162.022 636.159 159.366 634.822V634.822ZM201.245 608.289C201.623 608.059 203.056 604.782 204.43 601.007C205.805 597.232 207.541 594.135 208.288 594.125C209.036 594.125 216.792 593.091 225.523 591.849C234.255 590.607 241.691 589.591 242.048 589.591C242.406 589.591 243.661 592.429 244.838 595.897C246.801 601.68 247.221 602.156 249.903 601.631C251.511 601.316 255.296 600.719 258.312 600.304C263.252 599.624 263.735 599.3 263.169 597.043C262.4 593.975 233.28 518.985 232.589 518.292C232.146 517.848 216.685 519.97 216.423 520.51C216.364 520.634 209.49 540.195 201.148 563.983C192.805 587.77 185.727 607.941 185.419 608.807C184.958 610.1 186.261 610.232 192.707 609.545C197.025 609.084 200.867 608.52 201.245 608.289V608.289ZM213.875 574.591C214.179 573.764 216.677 566.561 219.424 558.585C222.172 550.608 224.727 544.077 225.104 544.073C225.823 544.073 236.32 571.714 235.81 572.273C235.648 572.449 232.252 573.091 228.263 573.695C224.274 574.299 219.28 575.085 217.165 575.443C214.269 575.933 213.457 575.723 213.875 574.591V574.591ZM313.903 634.822L309.074 632.392V566.73V501.069L312.767 500.411C314.798 500.05 342.128 496.145 373.499 491.734L430.538 483.714L435.721 486.236L440.903 488.758L440.61 554.804L440.317 620.849L382.366 629.048C350.493 633.557 323.136 637.248 321.574 637.25C320.011 637.251 316.56 636.159 313.904 634.822H313.903ZM356.946 608.249L359.934 607.681L360.765 582.133C361.223 568.081 361.858 556.584 362.177 556.584C362.496 556.584 371.516 564.882 382.22 575.022C392.925 585.163 403.561 595.216 405.856 597.362C409.18 600.468 410.627 601.113 412.958 600.527L415.887 599.791V556.999V514.208L408.217 515.025C403.998 515.475 400.163 516.077 399.694 516.363C399.226 516.649 398.842 528.664 398.842 543.063V569.243L374.696 546.422C355.418 528.204 349.919 523.6 347.424 523.591H344.3V566.941V610.29L349.129 609.56C351.785 609.158 355.303 608.574 356.946 608.261V608.249ZM468.441 634.822L463.611 632.392V566.73V501.069L467.304 500.411C469.335 500.05 496.665 496.145 528.036 491.734L585.076 483.714L590.258 486.236L595.44 488.758L595.146 554.804L594.853 620.849L536.901 629.048C505.028 633.557 477.671 637.248 476.109 637.25C474.547 637.251 471.095 636.159 468.439 634.822H468.441ZM4.82925 473.205L0 470.775V405.113V339.451L3.69298 338.794C5.72411 338.432 33.0535 334.527 64.4251 330.116L121.464 322.097L126.647 324.618L131.829 327.141L131.536 393.173L131.243 459.207L73.2915 467.419C41.4182 471.936 14.0617 475.632 12.4993 475.633C10.9369 475.634 7.4854 474.541 4.82925 473.205V473.205ZM313.903 473.205L309.074 470.775V405.113V339.451L312.767 338.794C314.798 338.432 342.128 334.527 373.499 330.116L430.538 322.097L435.721 324.618L440.903 327.141L440.61 393.173L440.317 459.207L382.366 467.419C350.493 471.936 323.136 475.632 321.574 475.633C320.011 475.634 316.56 474.541 313.904 473.205H313.903ZM468.441 473.205L463.611 470.775V405.113V339.451L467.304 338.794C469.335 338.432 496.665 334.527 528.036 330.116L585.076 322.097L590.258 324.618L595.44 327.141L595.146 393.173L594.853 459.207L536.901 467.419C505.028 471.936 477.671 475.632 476.109 475.633C474.547 475.634 471.095 474.541 468.439 473.205H468.441ZM543.486 440.88C555.158 436.481 565.298 425.741 570.603 412.159C573.898 403.721 574.193 387.957 571.215 379.408C568.508 371.637 561.579 363.944 553.896 360.179C548.25 357.412 546.753 357.175 537.653 357.61C525.454 358.195 517.419 361.667 509.19 369.91C498.195 380.922 493.74 392.658 494.501 408.605C494.876 416.442 495.62 419.808 498.105 424.895C501.878 432.619 509.294 439.454 516.689 442.025C523.411 444.361 535.636 443.839 543.486 440.88V440.88ZM520.453 424.346C512.471 418.917 509.264 410.609 510.702 399.081C513.202 379.039 535.657 366.394 548.911 377.565C555.035 382.726 557.061 388.346 556.614 398.927C556.276 406.913 555.731 409.03 552.784 413.803C547.557 422.268 541.341 426.104 532.025 426.615C525.48 426.974 523.846 426.655 520.453 424.346V424.346ZM622.421 473.164L618.171 470.654V404.978V339.301L621.864 338.674C623.895 338.33 651.291 334.44 682.745 330.031L739.933 322.014L744.966 324.968L750 327.923L749.706 393.541L749.412 459.159L690.893 467.42C658.707 471.963 631.095 475.68 629.532 475.678C627.97 475.677 624.779 474.545 622.442 473.164H622.421ZM665 446.759L669.24 446.089L669.545 419.956L669.85 393.823L694.053 416.589C707.364 429.11 718.869 439.347 719.619 439.337C723.638 439.287 723.774 438.075 724.556 395.197L725.328 352.856L722.02 352.941C720.2 352.988 716.41 353.371 713.598 353.794L708.484 354.564L707.916 380.955L707.348 407.346L683.292 384.654C664.84 367.249 658.553 361.962 656.305 361.962H653.374V405.263V448.564L657.067 447.997C659.098 447.685 662.668 447.128 665 446.76V446.759ZM159.357 312.285L154.519 309.425L154.812 243.787L155.105 178.15L188.626 173.384C207.062 170.763 234.29 166.947 249.132 164.905L276.118 161.191L281.233 163.68L286.348 166.169V232.197C286.348 268.512 286.019 298.224 285.618 298.224C285.216 298.224 259.266 301.827 227.95 306.23C196.635 310.632 169.479 314.44 167.604 314.69C165.363 314.99 162.538 314.166 159.357 312.285H159.357ZM195.728 286.122L198.853 285.524V260.932V236.34L210.654 248.787C217.145 255.633 222.692 260.978 222.98 260.665C223.269 260.352 228.441 253.486 234.473 245.407L245.441 230.717V254.878V279.039L251.975 278.295C255.569 277.886 259.404 277.302 260.497 276.998C262.346 276.485 262.486 273.448 262.486 233.842V191.238H259.733C257.467 191.238 254.038 195.26 240.345 213.978C231.196 226.485 223.304 236.969 222.807 237.276C222.311 237.584 214.393 229.656 205.212 219.658C192.361 205.664 187.879 201.481 185.732 201.481H182.945V244.831V288.181L187.774 287.451C190.43 287.049 194.009 286.452 195.728 286.122V286.122ZM313.894 312.285L309.056 309.425L309.349 243.787L309.642 178.15L343.163 173.384C361.6 170.763 388.828 166.947 403.67 164.905L430.655 161.191L435.77 163.68L440.885 166.169V232.197C440.885 268.512 440.557 298.224 440.155 298.224C439.754 298.224 413.803 301.827 382.488 306.23C351.172 310.632 324.017 314.44 322.142 314.69C319.9 314.99 317.076 314.166 313.894 312.285H313.894ZM386.75 280.439C394.358 278.11 399.741 274.481 406.106 267.39C412.709 260.033 415.379 254.968 417.579 245.621C421.393 229.417 418.195 215.583 408.325 205.595C401.54 198.728 395.4 196.362 384.638 196.468C372.517 196.585 364.502 199.726 355.853 207.747C345.053 217.762 339.794 230.008 339.768 245.2C339.745 256.398 342.586 264.402 349.11 271.551C359.19 282.598 370.765 285.331 386.75 280.439V280.439ZM366.982 263.795C353.941 257.208 351.964 235.247 363.227 222.068C368.551 215.838 374.821 212.92 382.954 212.888C395.142 212.841 402.261 221.47 402.24 236.27C402.208 257.586 383.542 272.16 366.982 263.795ZM468.431 312.285L463.593 309.425L463.886 243.787L464.179 178.15L497.7 173.384C516.137 170.763 543.365 166.947 558.207 164.905L585.193 161.191L590.308 163.68L595.422 166.169V232.197C595.422 268.512 595.094 298.224 594.692 298.224C594.291 298.224 568.341 301.827 537.025 306.23C505.71 310.632 478.554 314.44 476.679 314.69C474.437 314.99 471.613 314.166 468.431 312.285H468.431ZM516.165 284.976C517.948 284.471 518.154 282.61 518.154 266.997V249.582L522.415 248.876C532.489 247.208 531.881 246.741 541.487 263.542C546.328 272.01 550.741 279.218 551.292 279.56C552.264 280.161 568.201 278.067 569.038 277.228C569.266 276.998 565.119 269.247 559.821 260L550.189 243.187L554.474 240.078C560.942 235.385 564.174 227.834 564.174 217.416C564.174 208.01 562.137 203.022 556.608 198.895C552.014 195.465 540.955 195.299 520.426 198.35L502.814 200.969L502.516 244.014L502.218 287.06L508.197 286.3C511.486 285.882 515.072 285.286 516.165 284.976H516.165ZM518.154 224.439V215.374L528.096 213.91C546.875 211.144 549.35 211.835 549.35 219.844C549.35 226.956 545.945 229.244 532.789 230.97C526.927 231.74 521.236 232.624 520.142 232.936C518.368 233.442 518.154 232.528 518.154 224.439ZM622.978 312.375L618.148 309.477V243.791V178.105L676.952 169.852C709.294 165.313 736.933 161.609 738.371 161.622C739.81 161.622 743.002 162.799 745.464 164.207L749.942 166.768V232.496C749.942 268.647 749.586 298.224 749.141 298.224C748.214 298.224 636.394 313.856 631.207 314.711C628.833 315.102 626.332 314.393 622.969 312.375H622.978ZM4.82925 151.108L0 148.678V83.0162V17.3544L3.69298 16.6971C5.72411 16.3353 33.0535 12.4306 64.4251 8.01974L121.464 -3.16397e-05L126.647 2.52199L131.829 5.04373L131.536 71.0894L131.243 137.135L73.2915 145.334C41.4182 149.843 14.0617 153.534 12.4993 153.535C10.9369 153.537 7.4854 152.444 4.82925 151.108V151.108ZM56.6634 123.524C83.4555 119.482 92.0133 114.899 98.8289 100.942C102.934 92.5353 104.54 84.6673 104.54 72.9541C104.54 50.1839 95.4853 37.1427 78.6398 35.6502C72.894 35.1409 39.62 39.1194 37.2254 40.6019C36.1036 41.2963 36.0922 126.369 37.2119 126.346C37.6806 126.346 46.433 125.067 56.6614 123.524H56.6634ZM53.4061 81.1062C53.4061 58.9552 53.6221 55.9585 55.2642 55.3274C56.2862 54.9346 61.5275 54.3308 66.9114 53.9852C75.5399 53.4318 77.1462 53.6395 80.4617 55.7408C85.7656 59.1017 87.9137 64.8055 87.9844 75.7159C88.0557 86.7991 85.5635 94.0986 80.0504 98.947C75.7639 102.717 71.1985 104.223 60.508 105.393L53.4061 106.171V81.1062ZM159.366 151.108L154.537 148.678V83.0162V17.3544L158.23 16.6971C160.261 16.3353 187.591 12.4306 218.962 8.01974L276.001 -3.16397e-05L281.184 2.52199L286.366 5.04373L286.073 71.0894L285.78 137.135L227.829 145.334C195.955 149.843 168.599 153.534 167.036 153.535C165.474 153.537 162.022 152.444 159.366 151.108V151.108ZM221.143 121.8C254.792 117.166 251.123 118.7 251.123 109.27C251.123 104.9 250.708 101.324 250.201 101.324C248.915 101.324 217.278 105.67 212.773 106.466L209.08 107.118V97.5595V88.001L224.704 85.8399L240.328 83.6789L240.662 75.429C240.846 70.8918 240.714 67.1794 240.37 67.1794C239.531 67.1794 217.428 70.4 212.772 71.2004L209.079 71.8352V62.6784C209.079 57.6422 209.509 53.5216 210.033 53.5216C210.558 53.5216 220.146 52.2416 231.339 50.6771C242.533 49.1124 251.819 47.8324 251.975 47.8318C252.131 47.8315 252.259 44.2461 252.259 39.864C252.259 32.2445 252.142 31.8969 249.57 31.8969C246.811 31.8969 200.323 38.3248 195.728 39.3418L193.171 39.9076V82.5663C193.171 117.875 193.439 125.225 194.724 125.225C195.578 125.225 207.467 123.684 221.143 121.8H221.143ZM468.441 151.108L463.611 148.678V83.0162V17.3544L467.304 16.6971C469.335 16.3353 496.665 12.4306 528.036 8.01974L585.076 -3.16397e-05L590.258 2.52199L595.44 5.04373L595.146 71.0894L594.853 137.135L536.901 145.334C505.028 149.843 477.671 153.534 476.109 153.535C474.547 153.537 471.095 152.444 468.439 151.108H468.441Z" fill="#F6EECB"/>
</g>
<defs>
<clipPath id="clip0_926_264">
<rect width="750" height="799" fill="white"/>
</clipPath>
</defs>
</svg>
