<?xml version="1.0" encoding="UTF-8" standalone="no"?>
<!-- Created with Inkscape (http://www.inkscape.org/) -->

<svg
   width="101.72552mm"
   height="119.92509mm"
   viewBox="0 0 101.72552 119.92509"
   version="1.1"
   id="svg1"
   xml:space="preserve"
   xmlns:inkscape="http://www.inkscape.org/namespaces/inkscape"
   xmlns:sodipodi="http://sodipodi.sourceforge.net/DTD/sodipodi-0.dtd"
   xmlns="http://www.w3.org/2000/svg"
   xmlns:svg="http://www.w3.org/2000/svg"><sodipodi:namedview
     id="namedview1"
     pagecolor="#ffffff"
     bordercolor="#666666"
     borderopacity="1.0"
     inkscape:showpageshadow="2"
     inkscape:pageopacity="0.0"
     inkscape:pagecheckerboard="0"
     inkscape:deskcolor="#d1d1d1"
     inkscape:document-units="mm" /><defs
     id="defs1" /><g
     inkscape:label="Layer 1"
     inkscape:groupmode="layer"
     id="layer1"
     transform="translate(112.52175,77.465185)"><g
       id="g8"
       transform="translate(37.684673,-6.71608)"><g
         id="g11"
         inkscape:export-filename="pantera.svg"
         inkscape:export-xdpi="96"
         inkscape:export-ydpi="96"><path
           style="fill:#d40410"
           d="m -76.329953,28.003767 c 0,-0.27321 0.12724,-0.61457 0.36701,-0.9846 0.38867,-0.59982 0.6755,-0.733 0.6755,-0.31365 0,0.26534 -0.80579,1.71093 -0.95564,1.71442 -0.0478,10e-4 -0.0869,-0.18616 -0.0869,-0.41617 z m -3.28325,-0.23947 c -0.0418,-0.0418 -0.076,-0.29156 -0.076,-0.55508 0,-0.35565 0.0961,-0.61189 0.37278,-0.99425 0.6651,-0.91908 0.81293,-0.85985 0.7623,0.30544 l -0.0346,0.79759 -0.47426,0.26113 c -0.26084,0.14362 -0.50844,0.22694 -0.55021,0.18517 z m -3.20995,-0.61651 c -0.009,-0.0319 -0.0342,-0.67924 -0.0566,-1.43864 -0.0346,-1.17579 -0.0101,-1.42507 0.16474,-1.6796 0.11294,-0.16438 0.2753,-0.48132 0.36081,-0.7043 0.39369,-1.02664 0.60756,-0.78441 0.60756,0.68813 0,1.68298 -0.10214,2.13275 -0.61244,2.69689 -0.24648,0.27249 -0.45533,0.46937 -0.46411,0.43752 z m 5.10647,-1.94023 c -0.18193,-1.13163 -0.38008,-1.53481 -0.7543,-1.53481 -0.21449,0 -0.35722,0.13133 -0.59801,0.55021 -0.66746,1.16115 -0.85183,1.26353 -0.85183,0.47299 0,-0.51571 -0.12658,-0.56375 -0.39719,-0.15075 -0.10569,0.1613 -0.23395,0.26745 -0.28502,0.23589 -0.0511,-0.0316 -0.12699,-0.6457 -0.16871,-1.36475 -0.0417,-0.71904 -0.13252,-1.51586 -0.20177,-1.7707 -0.18713,-0.68871 -0.66084,-1.44793 -0.90343,-1.44793 -0.24243,0 -0.59278,0.34871 -0.59107,0.5883 0.002,0.254 -0.49659,1.61256 -0.59159,1.61256 -0.0463,0 -0.11946,-0.2085 -0.16251,-0.46334 -0.043,-0.25484 -0.12517,-0.46334 -0.18248,-0.46334 -0.1532,0 -0.91795,1.57058 -0.91795,1.88521 0,0.3558 -0.20683,0.54732 -0.59108,0.54732 -0.33184,0 -0.49633,-0.20698 -1.61094,-2.02711 -0.46775,-0.76382 -1.35842,-2.4736 -1.68955,-3.24337 -0.0822,-0.19112 -0.72968,-1.57245 -1.43881,-3.06961 -0.70913,-1.49716 -1.41114,-3.13912 -1.56004,-3.64879 -0.14889,-0.50967 -0.37127,-1.16124 -0.49417,-1.44793 -0.1229,-0.28669 -0.25703,-0.6931004 -0.29807,-0.9031304 -0.041,-0.21003 -0.23192,-0.74025 -0.42417,-1.17826 -0.3806,-0.86718 -0.69655,-2.29588 -0.69658,-3.14994 -3e-5,-0.8776 0.3147,-2.26425 0.65643,-2.89212 0.66039,-1.21336 2.13991,-2.21338002 3.50281,-2.36757002 0.7773,-0.0879 1.79144,0.17076 2.11311,0.53904 0.26324,0.30139 0.71188,0.45354 1.33736,0.45354 0.6175,0 2.46189,0.86801002 3.49336,1.64403002 0.57285,0.43099 0.61448,0.4942 0.5468,0.83021 -0.15473,0.76814 -0.19914,2.00501 -0.0879,2.44873 0.0639,0.25484 0.29998,1.1722 0.52469,2.03858 0.2247,0.86638 0.44514,2.02617 0.48986,2.5773204 0.0591,0.72878 0.12436,1.00208 0.23913,1.00208 0.0868,0 0.15783,-0.0521 0.15783,-0.11584 0,-0.0637 0.0782,-0.11583 0.17375,-0.11583 0.12065,0 0.17375,0.12133 0.17375,0.39701 0,0.28552 0.0813,0.46099 0.28959,0.6248 0.2678,0.21066 0.28958,0.30094 0.28958,1.20012 0,0.96463 0.24942,3.20123 0.45623,4.09105 0.36348,1.56397 0.56155,2.06422 0.86312,2.17994 0.39771,0.15261 0.42671,-0.21232 0.11904,-1.49831 -0.27194,-1.13669 -0.29468,-1.40333 -0.23101,-2.70873 0.0388,-0.79636 0.11584,-1.78675 0.17113,-2.20086 0.26811,-2.00843 0.25629,-1.9674 0.65401,-2.27075 0.20729,-0.15811 0.72943,-0.78481 1.1603,-1.3926604 0.63566,-0.89675 0.80352,-1.06927 0.89001,-0.91473 0.0586,0.10476 0.21951,0.18154 0.35753,0.17063 0.45049,-0.0356 0.54053,0.003 0.54053,0.22919 0,0.29983 0.30484,0.58745 0.62262,0.58745 0.44236,0 1.45142,-0.58123 2.17981,-1.2556 l 0.69754,-0.64579 -0.0414,0.57423 c -0.0408,0.56583 -0.0368,0.57375 0.27713,0.54089 0.27258,-0.0285 0.31854,0.009 0.31854,0.26063 0,0.31471 0.36224,0.7573104 0.61981,0.7573104 0.0861,0 0.32328,-0.0581 0.52716,-0.1292304 0.20389,-0.0711 0.3997,-0.10023 0.43514,-0.0648 0.0354,0.0354 -0.11056,0.3585704 -0.32445,0.7180604 -0.49442,0.83096 -0.88127,1.57947 -1.1959,2.31391 -0.13647,0.31854 -0.38992,0.81373 -0.56323,1.10042 -0.53633,0.88721 -1.95712,3.38946 -2.23965,3.94441 -0.14765,0.29001 -0.35496,0.87786 -0.4607,1.30634 -0.18078,0.73256 -0.18,0.83933 0.013,1.7894 0.11291,0.5557 0.31118,1.4013 0.4406,1.87912 0.34804,1.28499 0.37648,1.60561 0.15012,1.69247 -0.10606,0.0407 -0.28263,-0.0102 -0.39811,-0.11466 -0.34186,-0.30937 -0.56241,-0.21991 -0.84301,0.34192 -0.1455,0.29135 -0.30334,0.5537 -0.35076,0.58301 -0.0474,0.0293 -0.19907,-0.20908 -0.33701,-0.52973 -0.37776,-0.87813 -0.62043,-0.8108 -1.2445,0.34526 -0.49239,0.91213 -0.71529,1.07194 -0.71529,0.51284 0,-0.37602 -0.1335,-0.35659 -0.44502,0.0648 -0.1413,0.19113 -0.30033,0.34751 -0.35339,0.34751 -0.0531,0 -0.16143,-0.40398 -0.24081,-0.89772 z m -0.98961,-14.74784 c -0.0592,-0.26938 -0.004,-0.43145 0.26358,-0.7745204 0.18613,-0.23862 0.61599,-0.85086 0.95525,-1.36053 0.33926,-0.50968 0.98599,-1.44794 1.43717,-2.08503 l 0.82034,-1.15834 0.0621,0.40542 c 0.0341,0.22298 0.0258,0.48361 -0.0187,0.57917 -0.76956,1.65601 -1.86061,3.3875 -2.45516,3.89635 -0.21311,0.1823904 -0.523,0.4455804 -0.68864,0.5848804 l -0.30117,0.25327 z m 5.70191,-2.2652204 c -0.11467,-0.11466 2.03449,-3.51862 2.22156,-3.51862 0.056,0 0.129,-0.10425 0.16233,-0.23167 0.0333,-0.12742 0.12445,-0.23167 0.20251,-0.23167 0.23598,0 0.0575,0.83039 -0.36133,1.68118 -0.49458,1.00464 -1.98259,2.54327 -2.22507,2.30078 z m 5.97015,-9.72545 c -0.20705,-0.16319 -0.37646,-0.34562 -0.37646,-0.4054 0,-0.0598 -0.0973,-0.32967 -0.21612,-0.59974 -0.11887,-0.27007 -0.35831,-0.9341 -0.5321,-1.47563 -0.6379,-1.98781 -1.24157,-3.12827 -1.81199,-3.42324 -0.66371,-0.34322 -1.37816,0.0822 -1.37816,0.8207 0,0.31767 0.0583,0.43135 0.26062,0.50842 0.17833,0.0679 0.31838,0.0485 0.4435,-0.0617 0.10058,-0.0885 0.2309,-0.16072 0.28959,-0.16048 0.1561,6.3e-4 0.5475,1.01452 0.4698,1.21698 -0.12324,0.32117 -0.97909,0.13425 -1.35153,-0.29518 -0.10839,-0.12498 -0.27243,-0.22723 -0.36453,-0.22723 -0.32544,0 -0.82211,-0.66783 -0.92302,-1.24112 -0.26544,-1.50791 -0.31405,-1.9725 -0.25302,-2.41779 0.0934,-0.68156 0.62208,-0.9744696 1.75879,-0.9744696 0.93482,0 1.34803,0.18357 2.73941,1.2170096 1.2764,0.94803 2.27522,1.55851 2.76622,1.69073 0.7489,0.20166 1.80465,0.1626 2.62009,-0.0969 2.77969,-0.88467 3.06728,-0.95746 3.78298,-0.95746 0.69929,0 0.77127,0.0259 1.20958,0.43471 0.53055,0.4949 0.70285,1.15972 0.4554,1.75714 -0.13103,0.31632 -0.18549,0.34188 -0.70343,0.33008 -0.30877,-0.007 -0.6339,0.0474 -0.7225,0.12091 -0.0886,0.0735 -0.34636,0.15741 -0.57279,0.1864 -0.85247,0.10915 -1.19693,0.36033 -2.26685,1.65302 -0.89063,1.07607 -2.16465,2.33601 -2.65323,2.62392 -0.0763,0.045 0.0736,-0.37574 0.33306,-0.93489 0.52828,-1.13836 1.1772,-2.92711 1.09259,-3.01172 -0.11727,-0.11728 -0.32065,0.12672 -0.65087,0.78089 -0.50006,0.99061 -1.83551,2.99248 -2.08557,3.12631 -0.38515,0.20612 -0.96358,0.12771 -1.35946,-0.18429 z m -2.35407,-1.04196 c -0.15464,-0.29171 -0.3533,-0.66521 -0.44147,-0.83001 -0.14275,-0.26683 -0.13715,-0.31656 0.0511,-0.45422 0.11627,-0.085 0.27398,-0.15458 0.35046,-0.15458 0.19125,0 0.30306,0.51224 0.21466,0.98345 -0.0597,0.31803 -0.0282,0.41853 0.1698,0.54218 0.27098,0.16923 0.32653,0.44356 0.0898,0.44356 -0.0843,0 -0.27975,-0.23867 -0.43438,-0.53038 z m 10.11499,-0.87699 c -0.27076,-0.27079 -0.15838,-0.68237 0.31403,-1.15007 0.47415,-0.46945 0.63314,-0.53955 0.75958,-0.33496 0.0746,0.12064 -0.32638,0.88593 -0.71656,1.36774 -0.16982,0.2097 -0.24121,0.23315 -0.35705,0.11729 z m -26.21167,-15.1982196 c -1.12899,-0.29901 -1.12878,-0.29891 -1.90718,-0.934 -0.8424,-0.68731 -1.03487,-0.8866 -1.32351,-1.3704 -0.25676,-0.43038 -0.33992,-0.48038 -0.73255,-0.44044 -0.15919,0.0162 -0.20271,-0.0685 -0.20271,-0.39457 0,-0.43955 0.0169,-0.45294 0.9349,-0.74291 0.91563,-0.2892 2.51648,-0.003 3.7706,0.673 1.28197,0.69148 3.28709,2.29841 3.28709,2.63431 0,0.24079 -0.55873,0.53529 -1.31719,0.69428 -0.97059,0.20346 -1.36094,0.1849 -2.50945,-0.11927 z m 0.62029,-1.00553 c 0.31507,-0.24783 0.31142,-0.45586 -0.0147,-0.83554 -0.19985,-0.23269 -0.72103,-0.26855 -0.92587,-0.0637 -0.2304,0.2304 -0.16518,0.75621 0.11844,0.95486 0.33713,0.23614 0.46194,0.22769 0.82209,-0.0556 z m 22.81524,0.36456 c -0.14121,-0.0389 -0.39028,-0.25225 -0.5535,-0.47413 -0.31053,-0.42214 -0.31433,-0.64058 -0.0257,-1.47889 0.18854,-0.54769 0.3893,-0.46247 0.47754,0.20271 0.061,0.4597 0.12124,0.57917 0.29212,0.57917 0.11841,0 0.24529,0.0782 0.28196,0.17375 0.0902,0.23497 0.7235,0.22761 0.81448,-0.009 0.0387,-0.10077 0.0703,-0.30347 0.0703,-0.45045 0,-0.21368 -0.0812,-0.28246 -0.40542,-0.34328 -0.22299,-0.0418 -0.40542,-0.10183 -0.40542,-0.13334 0,-0.21833 0.52163,-1.00191 0.87142,-1.30903 0.42724,-0.37512 0.4784,-0.38047 1.16943,-0.12222 0.33009,0.12337 0.73918,0.66062 0.73918,0.97078 0,0.42523 -0.91426,1.73614 -1.43557,2.0584 -0.48671,0.30086 -1.4177,0.46631 -1.89079,0.336 z m -69.591517,-5.17939 c -0.19113,-0.027 -1.02514,-0.12988 -1.85336,-0.22866 -1.74093,-0.20764 -2.34451,-0.36442 -3.32911,-0.86476 -1.60859,-0.81742 -2.7062,-1.87401 -3.38913,-3.26245 -0.21018,-0.42733 -0.55057,-1.46984 -0.75642,-2.31669 -0.36392,-1.497173 -0.3722,-1.587767 -0.29964,-3.277255 0.0749,-1.743737 0.37221,-3.712297 0.63418,-4.199004 0.21082,-0.391672 0.62804,-0.33374 0.98714,0.137065 0.16684,0.21873 0.30334,0.429737 0.30334,0.468902 0,0.03917 0.17133,0.342366 0.38073,0.673778 0.72821,1.152513 1.24808,2.402856 1.65829,3.988351 0.22699,0.877307 0.48833,1.796023 0.58076,2.041593 0.20677,0.54933 0.92978,1.61605 1.46387,2.15979 1.12157,1.1418 3.59369,2.89916 4.77769,3.3963 0.84494,0.35477 0.92978,0.42008 0.96187,0.74039 0.0253,0.25221 -0.0233,0.37374 -0.17232,0.43092 -0.27049,0.1038 -1.50325,0.17451 -1.94789,0.11173 z"
           id="path9" /><path
           style="fill:#121f24"
           d="m -128.5424,49.096742 c -0.27659,-0.0496 -0.28533,-0.18483 -0.31441,-4.8667 l -0.004,-0.66605 1.53781,-0.0248 1.5378,-0.0248 -0.0319,1.76233 -0.0319,1.76233 -0.93348,0.0579 -0.93348,0.0579 0.0149,0.8956 c 0.008,0.49258 -0.0148,0.93565 -0.0511,0.98459 -0.0762,0.10269 -0.41418,0.12908 -0.79003,0.0617 z m 1.53481,-3.74716 c 0,-0.49101 -0.0139,-0.51141 -0.3475,-0.51141 -0.27668,0 -0.35537,0.0555 -0.38607,0.27241 -0.0212,0.14982 -0.007,0.39901 0.0321,0.55376 0.057,0.2271 0.13144,0.27319 0.38607,0.239 0.28934,-0.0388 0.31544,-0.0847 0.31544,-0.55376 z m 2.02721,0.96548 -1e-4,-2.80899 h 1.50585 1.50585 v 2.82595 2.82595 l -0.57853,-0.017 -0.57853,-0.017 -6.4e-4,-1.01356 -6.5e-4,-1.01355 h -0.3475 -0.34751 v 1.02752 1.02752 l -0.57907,-0.014 -0.57908,-0.014 z m 1.85325,-0.95564 c 0,-0.5663 -0.008,-0.57917 -0.3475,-0.57917 -0.33979,0 -0.34751,0.0129 -0.34751,0.57917 0,0.5663 0.008,0.57918 0.34751,0.57918 0.33978,0 0.3475,-0.0129 0.3475,-0.57918 z m 2.1719,3.73393 c -0.18603,-0.0406 -0.20271,-0.26749 -0.20271,-2.75783 0,-1.49249 0.0391,-2.71872 0.0869,-2.72495 0.0478,-0.006 0.32585,-0.0234 0.61793,-0.0383 l 0.53105,-0.0269 0.27979,1.10588 0.27979,1.10588 0.0579,-1.09099 0.0579,-1.09099 0.53795,-0.0334 c 0.49391,-0.0307 0.5441,-0.009 0.61304,0.2658 0.0605,0.24112 -0.0279,5.14564 -0.0942,5.22207 -0.0601,0.0693 -1.12816,0.13988 -1.27346,0.0841 -0.096,-0.0368 -0.20787,-0.21843 -0.24852,-0.4035 -0.11229,-0.51122 -0.32127,-0.56341 -0.25388,-0.0634 0.0446,0.33071 0.0164,0.42237 -0.13348,0.43403 -0.10449,0.008 -0.29423,0.0242 -0.42165,0.0357 -0.12742,0.0115 -0.32289,0.001 -0.43438,-0.0233 z m 6.66587,-0.0654 c -0.0355,-0.0574 -0.064,-0.58059 -0.0633,-1.16254 0.001,-0.96891 -0.0459,-1.19231 -0.5577,-2.65081 -0.30741,-0.876 -0.52269,-1.59825 -0.4784,-1.60501 0.11408,-0.0174 0.73867,-0.0186 0.97013,-0.002 0.12289,0.009 0.27706,0.23509 0.41829,0.61369 l 0.22367,0.5996 0.19915,-0.5996 c 0.20812,-0.62658 0.22934,-0.63936 1.03238,-0.62149 0.18182,0.004 0.35011,0.0269 0.37398,0.0507 0.0239,0.0239 -0.18909,0.69174 -0.47324,1.48416 -0.48914,1.3641 -0.51675,1.50703 -0.51877,2.68599 -0.002,1.10426 -0.0251,1.24628 -0.20485,1.25463 -0.11149,0.005 -0.34987,0.0201 -0.52972,0.0332 -0.17986,0.0131 -0.35607,-0.0233 -0.39158,-0.0807 z m 4.90651,0.0753 c -0.0417,-0.0417 -0.0758,-1.31652 -0.0758,-2.83296 v -2.75716 l 1.5079,8.6e-4 1.5079,8.5e-4 -0.031,2.80457 -0.031,2.80457 -1.4011,0.0275 c -0.7706,0.0151 -1.4352,-0.007 -1.47689,-0.0483 z m 1.77755,-2.7593 v -1.56377 h -0.3475 -0.3475 v 1.56377 1.56376 h 0.3475 0.3475 z m 3.00622,2.73988 c -0.0765,-0.0257 -0.11614,-0.75585 -0.11005,-2.02711 0.005,-1.09282 0.007,-2.05211 0.005,-2.13175 -0.003,-0.0873 -0.16585,-0.14479 -0.41034,-0.14479 -0.22298,0 -0.41032,-0.0391 -0.4163,-0.0869 -0.006,-0.0478 -0.019,-0.30482 -0.029,-0.5712 l -0.0181,-0.48432 0.92668,-0.0727 c 0.50967,-0.04 1.16124,-0.0466 1.44793,-0.0146 0.28669,0.032 0.56321,0.0611 0.61448,0.0648 0.0513,0.004 0.0773,0.25425 0.0579,0.55687 -0.0349,0.54428 -0.04,0.5506 -0.46716,0.58601 l -0.43185,0.0358 -0.0315,2.15192 -0.0315,2.15192 -0.49318,0.0131 c -0.27124,0.007 -0.54698,-0.005 -0.61274,-0.027 z m 3.16198,0.0163 -0.26063,-0.0502 v -2.76199 -2.76199 h 1.50585 1.505847 v 1.78545 1.78545 h -0.28958 c -0.35281,0 -0.35297,0.0763 -0.002,1.098 0.15264,0.44463 0.232,0.83656 0.17636,0.87095 -0.0556,0.0344 -0.32546,0.0569 -0.59958,0.05 l -0.49841,-0.0125 -0.312677,-0.8005 -0.31268,-0.80051 -0.007,0.76838 c -0.007,0.69592 -0.0319,0.77496 -0.26791,0.83821 -0.14335,0.0384 -0.28669,0.0635 -0.31854,0.0557 -0.0319,-0.008 -0.1752,-0.0368 -0.31855,-0.0644 z m 1.592727,-3.76853 c 0,-0.53549 -0.0101,-0.55144 -0.347507,-0.55144 -0.33867,0 -0.3475,0.0144 -0.3475,0.56564 0,0.55443 0.007,0.56536 0.3475,0.55144 0.335457,-0.0137 0.347507,-0.0333 0.347507,-0.56564 z m 4.02525,3.75686 c -0.17391,-0.0338 -0.20271,-0.17812 -0.20271,-1.01551 v -0.9761 h -0.32652 c -0.31909,0 -0.32674,0.0151 -0.33668,0.66605 -0.0219,1.43361 0.0393,1.30314 -0.61098,1.30314 h -0.57918 v -2.77647 -2.77646 l 1.50175,8.5e-4 c 0.82596,4.7e-4 1.52451,0.038 1.55233,0.0833 0.0278,0.0454 0.022,1.28957 -0.0129,2.76493 l -0.0635,2.68246 -0.35947,0.0416 c -0.1977,0.0229 -0.45068,0.0239 -0.56217,0.002 z m -0.20271,-3.72913 c 0,-0.5663 -0.008,-0.57917 -0.34751,-0.57917 -0.33265,0 -0.3475,0.0214 -0.3475,0.50195 0,0.57628 0.0518,0.6564 0.42473,0.6564 0.24711,0 0.27028,-0.0497 0.27028,-0.57918 z m 2.13371,3.71636 c -0.0268,-0.0265 -0.0487,-0.3002 -0.0487,-0.60813 v -0.55987 h 0.92668 0.92667 v -0.40542 -0.40542 h -0.92667 -0.92668 v -1.80218 -1.80219 l 1.47689,0.054 1.47689,0.054 0.035,0.58983 0.035,0.58984 h -0.93273 -0.93273 v 0.59232 0.59233 l 0.51577,-0.0773 c 0.28368,-0.0425 0.70069,-0.0427 0.92668,-2.6e-4 l 0.4109,0.0771 v 1.55087 c 0,1.39159 -0.0208,1.55309 -0.20271,1.57244 -0.41711,0.0444 -2.71352,0.0345 -2.7603,-0.0119 z m 5.6272,-2.74093 v -2.84123 l 1.24523,0.0565 c 0.68487,0.0311 1.3625,0.06 1.50585,0.0641 0.23451,0.007 0.26062,0.0656 0.26062,0.58678 v 0.57917 h -0.92667 -0.92668 v 1.56377 1.56376 h 0.92668 0.92667 v 0.57918 c 0,0.31854 -0.0391,0.58026 -0.0869,0.58159 -0.0478,10e-4 -0.72542,0.0261 -1.50585,0.055 l -1.41898,0.0526 z m 3.82255,0.014 v -2.82278 h 1.50788 1.50789 l -0.031,2.799 -0.031,2.79901 -1.47689,0.0238 -1.47689,0.0238 z m 1.85335,-0.005 v -1.56377 h -0.3475 -0.34751 v 1.56377 1.56376 h 0.34751 0.3475 z m 2.10402,2.72211 c -0.12646,-0.0952 -0.15562,-0.37413 -0.0808,-0.77288 l 0.0705,-0.37588 0.88808,-0.0337 0.88808,-0.0337 0.005,-0.34751 0.005,-0.3475 -0.92668,-0.0579 -0.92667,-0.0579 v -1.73751 -1.73752 h 1.33209 c 1.807,0 1.73752,-0.026 1.73752,0.6506 v 0.56566 h -0.92668 -0.92667 v 0.56304 0.56304 l 0.43438,-0.0425 c 0.23891,-0.0233 0.65736,-0.0127 0.92989,0.0237 l 0.49552,0.0662 -0.0322,1.58514 -0.0322,1.58515 h -1.42894 c -0.78591,0 -1.46354,-0.0261 -1.50584,-0.0579 z m 4.06417,0.0336 -0.26063,-0.0497 v -2.76314 -2.76313 l 1.50585,-0.002 1.50585,-0.002 v 2.7729 2.7729 h -0.57917 -0.57917 v -0.98459 -0.9846 h -0.34751 -0.3475 v 0.9846 c 0,0.77273 -0.0353,0.98459 -0.16428,0.98459 -0.0904,0 -0.2337,0.0187 -0.31854,0.0417 -0.0849,0.0229 -0.27155,0.0193 -0.4149,-0.008 z m 1.59273,-3.74031 c 0,-0.5663 -0.008,-0.57917 -0.34751,-0.57917 -0.33978,0 -0.3475,0.0129 -0.3475,0.57917 0,0.5663 0.008,0.57918 0.3475,0.57918 0.33979,0 0.34751,-0.0129 0.34751,-0.57918 z m 2.80899,3.74262 -0.72397,-0.047 v -0.57364 -0.57365 h 0.91764 0.91765 l -0.0283,-0.37646 -0.0283,-0.37646 -0.91834,-0.0579 -0.91834,-0.0579 -0.032,-1.7755 -0.032,-1.7755 1.46382,0.0329 c 1.51536,0.0341 1.54841,0.046 1.57321,0.56828 0.0334,0.70316 0.0496,0.691 -0.92123,0.691 h -0.90204 l -0.0276,0.36266 c -0.0521,0.68315 0.0141,0.73777 0.89399,0.73777 0.44142,0 0.84104,0.0385 0.88805,0.0855 0.0919,0.0919 0.0776,2.99485 -0.0153,3.08768 -0.0778,0.0778 -1.24079,0.10441 -2.10697,0.0482 z m -8.83,-10.76223 c -1.3627,-0.1748 -2.28246,-0.4285 -4.0566,-1.11898 -1.37563,-0.53538 -2.1396,-0.95336 -2.89587,-1.58438 -0.28669,-0.23922 -0.69642,-0.52544 -0.91052,-0.63605 -0.21409,-0.11061 -1.28266,-1.11474 -2.3746,-2.2314 -1.09195,-1.11667 -2.26643,-2.24018 -2.60998,-2.49669 -0.56803,-0.42414 -2.63322,-1.47157 -3.19791,-1.62193 -0.12742,-0.0339 -0.83112,-0.2438 -1.56377,-0.46637 l -1.3321,-0.40468 -3.359197,-0.0665 c -1.84756,-0.0366 -3.72409,-0.1253 -4.17005,-0.1972 -2.09922,-0.33844 -5.3502,-0.93556 -5.99847,-1.10177 -0.39596,-0.10152 -0.9545,-0.31629 -1.24119,-0.47727 -0.28669,-0.16098 -1.58983,-0.7352 -2.89587,-1.27605 -3.58757,-1.48567 -3.70883,-1.54014 -4.50327,-2.02277 -1.40118,-0.85125 -2.3536,-1.71546 -3.74601,-3.39908 -0.61014,-0.73774 -1.64895,-2.34476 -2.25098,-3.48223 -0.74486,-1.40734 -1.01578,-2.06352 -1.83829,-4.45244 -0.34,-0.98749 -0.75582,-2.1249098 -0.92406,-2.5276098 -0.58711,-1.40536 -0.86487,-2.99688 -0.94366,-5.40705 -0.0635,-1.94326 -0.0433,-2.35678 0.17325,-3.53296004 0.13485,-0.73265 0.32507,-1.93153996 0.42271,-2.66418996 0.0976,-0.73266 0.28287,-1.72304 0.41164,-2.20086 0.12877,-0.47782 0.39096,-1.46821 0.58264,-2.20086 0.43078,-1.64659 1.01353,-2.8771702 2.24903,-4.7492202 1.52087,-2.30445 4.03864,-4.72753 6.13904,-5.90817 0.38226,-0.21486 0.95749,-0.58714 1.27831,-0.82728 0.32081,-0.24014 0.94632,-0.63963 1.39001,-0.88776 0.4437,-0.24812 1.10951,-0.63708 1.47959,-0.86436 0.50631,-0.31094 1.09874,-0.51702 2.39322,-0.83246 1.56806,-0.38211 1.87251,-0.41989 3.43926,-0.42673 1.20436,-0.005 2.18701,0.0652 3.28267,0.23549 0.86007,0.13364 1.7135,0.24333 1.8965,0.24375 0.29691,6.7e-4 0.31561,-0.02 0.17375,-0.19221 -0.14245,-0.1729 -0.12887,-0.18552 0.13061,-0.12137 0.15927,0.0394 0.52415,0.10489 0.81085,0.14559 l 0.52125,0.074 -0.3475,-0.24812 c -0.77407,-0.55268 -1.48797,-0.81396 -3.36299,-1.23079 -1.78019,-0.39575 -2.12369,-0.43678 -3.64501,-0.43536 -1.55481,10e-4 -1.8018,0.0331 -3.32435,0.42612 -0.90461,0.2335 -1.67405,0.42455 -1.70985,0.42455 -0.0358,0 0.14766,-0.42318 0.40771,-0.94039 0.51654,-1.02734 1.21616,-1.85111 2.17708,-2.5634 0.72167,-0.53494 1.00408,-1.07343 1.124,-2.14315 0.0446,-0.39818 0.0556,-0.72396 0.0245,-0.72396 -0.0312,0 -0.23816,0.17116 -0.45998,0.38036 -0.55663,0.52497 -1.02806,0.64152 -2.32134,0.57387 -1.53221,-0.0801 -2.63336,0.17226 -3.91033,0.89631 -0.98261,0.55715 -2.3854,1.17182 -3.59088,1.57343 -0.83719,0.27892 -1.99069,0.26198 -3.27519,-0.0481 -1.25979,-0.30411 -1.4836,-0.41951 -2.91325,-1.50202 -2.92069,-2.2115 -4.29367,-3.98641 -5.1681,-6.680997 -0.20674,-0.63709 -0.51937,-1.523225 -0.69472,-1.969188 -0.32571,-0.82835 -1.43724,-2.840993 -1.92521,-3.485971 -0.32081,-0.424036 -0.34536,-0.767096 -0.0743,-1.038164 0.27095,-0.270946 1.04164,-0.191955 4.49442,0.460646 2.9543,0.558386 4.49494,0.774861 9.51458,1.336893 3.3375,0.373687 4.83602,0.415452 9.0488,0.252195 l 2.11487,-0.08196 1.49598,-0.776646 c 3.40323,-1.766812 6.45014,-2.943068 9.51735,-3.674165 1.54311,-0.367814 1.58714,-0.371663 2.203127,-0.192591 0.76922,0.22362 1.54424,0.726145 2.50281,1.622841 0.40011,0.374281 0.72747,0.62729 0.72747,0.56224 0,-0.06505 0.11187,-0.08902 0.2486,-0.05326 0.22333,0.0584 0.24076,0.03081 0.17145,-0.271472 -0.23831,-1.0393 -0.22829,-1.156924 0.13301,-1.561289 l 0.34749,-0.388908 1.08453,0.0041 c 0.97457,0.0037 1.24437,0.05771 2.66087,0.533106 0.86699,0.290973 1.85738,0.564844 2.20086,0.608601 0.94143,0.11993 3.10441,0.645968 3.69391,0.898357 1.09672,0.469554 1.35462,0.609469 2.08525,1.131278 0.41411,0.295752 1.06359,0.716931 1.4433,0.935952 1.00814,0.581518 2.88329,2.50092 3.65342,3.739645 0.3504,0.563602 0.84559,1.29336 1.10043,1.621684 0.46049,0.593285 0.46357,0.594931 0.501,0.267954 0.11848,-1.034982 -0.61507,-3.095238 -1.49501,-4.198928 -0.19862,-0.249128 -0.45731,-0.6354 -0.57486,-0.858382 -0.32705,-0.620376 -1.14113,-1.377658 -1.84825,-1.719299 -0.51255,-0.247636 -0.64418,-0.369286 -0.67335,-0.622311 -0.0517,-0.44874 0.35721,-0.521585 1.27615,-0.227315 0.40111,0.128449 1.01599,0.297619 1.36639,0.375933 0.3504,0.07832 0.92378,0.236462 1.27418,0.351438 1.0017,0.328686 2.53975,0.485094 4.92297,0.500629 2.35541,0.01535 2.95495,0.125149 5.1074,0.93533 2.35296,0.88565 4.84254,2.802303 5.88973,4.534326 0.64074,1.059745 0.81738,1.221364 1.16285,1.063957 0.24424,-0.111285 0.3748,-0.07448 0.93577,0.263815 0.95064,0.573293 2.235,1.967416 2.68799,2.917746 0.20635,0.43289 0.37518,0.83894 0.37518,0.90233 0,0.0634 0.10425,0.3196 0.23167,0.56936 0.18545,0.3635 0.23167,0.6827 0.23167,1.59978 0,1.21986 -0.13295,1.81259 -0.43233,1.92747 -0.11256,0.0432 -0.44023,-0.10861 -0.8405,-0.38939 -0.90161,-0.63244 -1.58416,-0.7959 -2.25447,-0.5399 -0.85621,0.32699 -1.38304,0.80295 -2.14214,1.93528 -0.85418,1.27416 -1.10782,1.56824 -1.55172,1.79913 -0.47835,0.24881 -0.62052,0.13378 -0.76646,-0.62015 -0.0717,-0.37038 -0.23792,-1.02192 -0.36938,-1.44786 -0.13146,-0.42594 -0.21615,-0.84295 -0.18818,-0.92668 0.0369,-0.11057 0.33349,-0.15223 1.0836,-0.15223 0.97532,0 1.07464,-0.0236 1.78569,-0.42498 1.15604,-0.65252 1.67595,-1.32192 1.80509,-2.3241 0.13503,-1.0479 -0.61252,-3.563903 -1.05891,-3.563903 -0.15721,0 -0.17843,0.07029 -0.11361,0.376462 0.1996,0.942881 0.20216,2.527891 0.005,3.130521 -0.22839,0.69826 -0.75493,1.40881 -1.22354,1.65114 -0.50857,0.26299 -1.41524,0.21118 -2.2669,-0.12954 -0.41217,-0.16489 -0.82503,-0.27078 -0.91748,-0.2353 -0.21037,0.0807 -0.217,0.56352 -0.0134,0.97524 0.0851,0.17203 0.24594,0.67767 0.35746,1.12363 0.11152,0.44596 0.29853,1.07147 0.41557,1.39002 0.11705,0.31854 0.24469,0.7717 0.28366,1.00702 0.0438,0.26428 0.149,0.45266 0.27529,0.49274 0.11245,0.0357 0.37613,0.33835 0.58596,0.67258 0.20983,0.33423 0.5445,0.86831 0.74372,1.18686 0.6036,0.96517 1.48176,3.15307 2.09983,5.23169 0.33351,1.12159 0.44233,1.73536 0.53326,3.00772 0.0628,0.87921 0.16075,1.6450802 0.21759,1.7019302 0.0827,0.0826 0.93553,-0.0954 0.93553,-0.1952802 0,-0.0132 -0.0985,-0.30887 -0.21884,-0.65706 -0.25406,-0.73496 -0.41044,-2.44641 -0.26918,-2.94588 0.0689,-0.2436 0.27299,-0.44683 0.70121,-0.69826 0.75755,-0.44479 1.09242,-0.83043 1.60988,-1.85399 0.93992,-1.8592 1.14206,-2.82999 0.77312,-3.71299 -0.22878,-0.54755 -0.14353,-1.22652 0.26706,-2.12698 0.16221,-0.35572 0.32774,-0.82921 0.36785,-1.05219 0.10908,-0.60637 0.54088,-0.61768 1.07352,-0.0281 0.91078,1.00813 2.55036,4.67326 2.51193,5.61519 -0.0111,0.27183 0.0444,0.9064 0.12329,1.41015 0.25842,1.64982 -0.0625,3.37773 -1.07988,5.81405 -0.16432,0.3935102 -0.32904,1.0723402 -0.37178,1.5321502 -0.0665,0.71533 -0.0503,0.83574 0.12108,0.9015 0.10879,0.0418 0.35683,0.35769 0.5512,0.7021 l 0.3534,0.62619 0.30499,-0.19888 c 0.16774,-0.10939 0.77411,-0.57351 1.34749,-1.03139 1.12995,-0.90233 2.0158,-1.49272 2.10535,-1.40316 0.031,0.031 0.005,0.15204 -0.0585,0.26899 -0.12998,0.2407 -2.68848,2.79375 -3.17627,3.16951 -0.26259,0.20228 -0.31854,0.33547 -0.31854,0.75823 0,0.28207 0.0191,0.51285 0.0425,0.51285 0.0234,0 0.53159,-0.25963 1.12938,-0.57695 0.5978,-0.31732 1.19116,-0.57596 1.31858,-0.57476 0.33028,0.003 -0.66355,0.90889 -1.93273,1.76147 -0.87349,0.58677 -1.02537,0.74115 -1.25353,1.27418 -0.14279,0.33358 -0.36381,0.75387 -0.49115,0.93397 -0.55349,0.78284996 0.28628,0.59313 3.04195,-0.68723 2.1322,-0.99068 2.56526,-0.9694 1.33778,0.0657 -0.72804,0.61396 -1.64777,1.09737 -3.33449,1.75260996 -0.86266,0.33512 -1.26389,0.55104 -1.31332,0.70677 -0.0391,0.12333 -0.28208,0.59006 -0.53987,1.03718004 -0.76153,1.32087 -1.98368,2.09468 -3.57021,2.26051 -0.6046,0.0632 -0.68918,0.10513 -0.8125,0.40286 -0.14642,0.35349 -0.78352,0.96907 -1.19874,1.15825 -0.19248,0.0877 -0.28346,0.28895 -0.39395,0.87145 -0.079,0.41658 -0.27798,0.99976 -0.44212,1.29596 -0.97826,1.76531 -1.45746,2.46022 -2.24434,3.2546298 -0.98559,0.99501 -2.71413,2.19196 -3.3036,2.28762 -0.33861,0.0549 -0.41343,0.0233 -0.5251,-0.22173 -0.11015,-0.24176 -0.0661,-0.4406 0.28547,-1.29003 0.5239,-1.2656098 0.52345,-1.4672298 -0.001,-0.65399 -1.26147,1.95441 -3.1973,6.56764 -3.62123,8.62967 -0.26518,1.28983 -0.37819,2.23822 -0.37483,3.14542 0.004,1.01091 0.24057,1.83604 0.50213,1.74951 0.28642,-0.0948 0.77229,-0.96984 1.02895,-1.85322 0.43603,-1.50076 0.99456,-1.33368 1.26069,0.37712 0.27796,1.78678 -0.0468,3.57312 -0.98942,5.44252 -0.96718,1.91807 -2.30957,2.40664 -6.91067,2.51517 -2.06412,0.0487 -2.25757,0.0337 -4.11213,-0.31826 -3.10932,-0.59012 -4.01423,-1.03009 -5.49776,-2.67308 -0.62127,-0.68804 -0.86197,-0.88426 -0.97234,-0.79266 -0.0943,0.0783 -0.17172,0.0812 -0.21681,0.008 -0.0386,-0.0624 -0.0169,-0.14633 0.0481,-0.1865 0.0716,-0.0443 0.008,-0.21854 -0.16026,-0.44238 -1.05458,-1.39883 -4.34109,-7.91777 -5.03385,-9.98489 -0.61284,-1.82862 -2.17308,-5.09827 -2.62495,-5.50087 -0.17877,-0.15927 -0.29407,-0.2114 -0.25622,-0.11583 0.28949,0.73103 2.24581,5.40185 2.68276,6.40524 0.29954,0.68784 0.52573,1.30726 0.50265,1.37649 -0.0475,0.14243 -1.80206,-3.91096 -2.86706,-6.62339 -0.38773,-0.98749 -0.90816,-2.2396098 -1.15653,-2.7824998 -1.01774,-2.22464 -1.34692,-3.69261 -1.2423,-5.54005 0.057,-1.00603 0.12212,-1.31456 0.38895,-1.84193 0.34866,-0.68912004 1.02071,-1.34343004 1.65982,-1.61600004 0.22298,-0.0951 0.60428,-0.27562 0.84734,-0.40116 0.69157,-0.3572 1.32522,-0.55404 2.36999,-0.73622996 1.19509,-0.20841 2.68987,-0.0815 3.97296,0.33735996 1.22396,0.39954 4.37417,1.81901004 5.58322,2.51577004 1.27835,0.73669 2.0977,1.0593 3.84875,1.5154 1.33823,0.34857 1.47632,0.36184 3.70671,0.35637 2.08793,-0.005 2.45347,-0.0367 3.7019,-0.3193 0.76187,-0.17249 1.71239,-0.41467 2.11227,-0.53818 0.43093,-0.1331 1.07557,-0.22638 1.58273,-0.22903 0.78474,-0.004 0.94094,0.0381 1.88403,0.50901 1.40186,0.69999 2.38262,1.01953 3.34504,1.08985 0.7172,0.0524 0.85663,0.0278 1.20733,-0.21324 0.54945,-0.37759 0.55742,-0.51884 0.034,-0.60253 -1.24962,-0.19983 -3.2991,-1.40114 -3.92074,-2.29816004 -0.16824,-0.24277 -0.39146,-0.4414 -0.49603,-0.4414 -0.10458,0 -0.30969,-0.0837 -0.4558,-0.18607 -0.38842,-0.27207 -1.35311,-0.12484 -2.04118,0.31152 -1.8317,1.16163004 -2.86369,1.47657004 -5.11931,1.56226004 -1.48595,0.0565 -1.83594,0.034 -2.58718,-0.16571 -2.23665,-0.59469 -7.96471,-2.94275004 -9.25842,-3.79523 -0.73379,-0.48353 -1.95474,-1.68556 -2.65737,-2.61619 -0.33013,-0.43724 -0.64387,-0.70492 -1.02713,-0.8763 -0.95735,-0.42811 -2.16252,-0.92358 -2.46308,-1.01262 -0.41184,-0.12201 -2.88934,-1.48837 -4.05421,-2.23594 -1.11584,-0.71609 -2.73585,-1.9148902 -3.76462,-2.7857902 -0.38226,-0.32359 -0.73744,-0.58967 -0.7893,-0.59129 -0.21089,-0.007 0.48699,1.00463 1.14952,1.6656 1.19151,1.1887002 5.37486,3.9973802 7.11111,4.7743602 2.36308,1.05749 2.81699,1.36675 2.75773,1.87895 -0.0404,0.34932 -0.0166,0.34749 -2.43872,0.18649 -2.09494,-0.13926 -3.78325,0.35366 -5.00973,1.46263 -1.65894,1.49999996 -2.47925,2.35350996 -2.76297,2.87479996 -0.42151,0.77444004 -0.77806,2.37111004 -0.78765,3.52718004 -0.007,0.85873 0.0512,1.13684 0.52839,2.51859 0.54627,1.58186 1.72369,3.9094098 3.002,5.9344498 0.63928,1.01272 1.50694,3.04539 2.11016,4.9435 0.33584,1.05678 1.23159,2.93845 1.84725,3.88045 0.20819,0.31855 1.06717,1.72552 1.90885,3.1266 1.9815,3.29846 2.22325,3.62875 3.52436,4.81495 0.98202,0.8953 1.21091,1.04254 2.2889,1.47245 1.57155,0.62674 4.73121,1.28002 6.64199,1.37326 1.91941,0.0937 4.87395,-0.35537 5.80844,-0.88276 0.73673,-0.41579 1.12117,-0.4413 1.36674,-0.0907 0.49669,0.70913 0.0508,1.7479 -1.48893,3.46869 -1.12246,1.25445 -1.15316,1.27631 -3.31164,2.35717 -1.23925,0.62056 -1.61471,0.74881 -2.71432,0.92716 -1.22858,0.19927 -1.77681,0.19701 -3.42252,-0.0141 z m 5.56926,-9.11035 c 0.0306,-0.99311 -0.04,-2.35615 -0.12672,-2.44584 -0.0533,-0.0551 -0.22596,0.10124 -0.38384,0.3475 -0.15785,0.24623 -0.60397,0.83864 -0.99136,1.31645 -0.38739,0.47782 -0.70574,0.93392 -0.70744,1.01356 -0.002,0.10589 0.29257,0.14479 1.09734,0.14479 h 1.10043 z m 3.01731,0.0661 c 0.48612,-0.0581 0.54523,-0.0982 0.60813,-0.41269 0.0383,-0.1916 0.0697,-0.50147 0.0697,-0.68858 0,-0.43114 -0.47751,-2.5267 -0.57575,-2.5267 -0.0404,0 -0.17003,0.27366 -0.28802,0.60813 -0.29251,0.82923 -1.06985,2.37239 -1.43854,2.85577 l -0.30273,0.39691 0.69438,-0.0843 c 0.38192,-0.0463 0.9367,-0.1132 1.23285,-0.14858 z m -6.42922,-0.55835 c 0.15663,-0.52155 0.20694,-2.67754 0.0645,-2.76555 -0.13075,-0.0808 -0.26578,0.0355 -0.65575,0.56469 -0.18779,0.25484 -0.70117,0.86236 -1.14086,1.35005 -0.43969,0.4877 -0.79588,0.93076 -0.79154,0.9846 0.008,0.0992 1.73645,0.37675 2.15605,0.34619 0.16014,-0.0117 0.27001,-0.15514 0.36756,-0.47998 z m 8.46407,-0.20271 c 0.52892,-0.57658 1.38578,-2.67713 1.5322,-3.75611 0.046,-0.33916 0.0752,-0.61665 0.0649,-0.61665 -0.0103,0 -0.52263,0.49813 -1.13842,1.10696 l -1.11962,1.10696 0.16728,0.95925 c 0.092,0.5276 0.13781,1.07198 0.10178,1.20974 -0.0848,0.32412 0.0894,0.3196 0.39189,-0.0102 z m -11.78733,-1.53481 c 0.37947,-2.06888 0.33677,-4.3904 -0.071,-3.85882 -0.0642,0.0837 -0.18664,0.33455 -0.27215,0.55754 -0.0855,0.22298 -0.24402,0.53573 -0.35225,0.695 -0.10822,0.15928 -0.35689,0.60234 -0.55259,0.9846 -0.19571,0.38225 -0.51484,0.92957 -0.70919,1.21626 -0.19434,0.28669 -0.35136,0.57338 -0.34892,0.63709 0.0116,0.30213 1.80563,1.42369 1.97849,1.23686 0.04,-0.0432 0.18737,-0.70402 0.3276,-1.46853 z m 8.6556,-0.81199 0.87926,-1.79658 -0.18312,-0.95449 c -0.11809,-0.61556 -0.16252,-1.28354 -0.12511,-1.88116 0.0647,-1.03407 0.73266,-3.64124 1.14216,-4.45828 0.14407,-0.28744 0.53107,-1.25237 0.85999,-2.1443 0.61528,-1.66838 1.2356,-3.11113 1.46922,-3.41712 0.28575,-0.37426 0.76888,-1.2879 0.71142,-1.34535 -0.0334,-0.0334 -0.26661,9.7e-4 -0.51825,0.0764 -0.54864,0.16438 -0.91539,0.0194 -1.02164,-0.4039698 -0.0395,-0.15754 0.0581,-0.69404 0.22716,-1.24833 0.32216,-1.0562 0.65029,-2.51401 0.65029,-2.88913 0,-0.12937 -0.2422,0.22589 -0.53823,0.78946 -0.72283,1.37612 -1.08074,1.88121 -1.77594,2.50626 -0.64153,0.57678 -1.63733,1.1246898 -2.0441,1.1246898 -0.50127,0 -0.63685,-0.2892098 -0.56224,-1.1993198 0.0373,-0.45528 0.026,-1.04707 -0.0252,-1.31508 l -0.0931,-0.4873 -0.46334,0.89272 c -0.59906,1.15422 -1.95658,3.0702098 -2.43251,3.4332198 -0.39149,0.2986 -0.381,0.26195 -0.64861,2.26663 -0.0553,0.41411 -0.13229,1.4045 -0.17113,2.20086 -0.0637,1.3054 -0.0409,1.57204 0.23101,2.70873 0.30767,1.28599 0.27867,1.65092 -0.11904,1.49831 -0.30157,-0.11572 -0.49964,-0.61597 -0.86312,-2.17994 -0.20681,-0.88982 -0.45623,-3.12642 -0.45623,-4.09105 0,-0.89289 -0.0231,-0.99049 -0.28273,-1.19472 -0.26486,-0.20834 -0.28207,-0.28992 -0.27227,-1.29085 0.008,-0.78464 -0.0727,-1.4223098 -0.30268,-2.4005598 -0.61377,-2.61089 -0.67704,-2.96923 -0.74904,-4.24204 l -0.0729,-1.28826 -1.21626,-0.63839 c -1.96046,-1.02899 -2.08241,-1.09001 -3.41712,-1.70961 -1.16131,-0.53911004 -1.80001,-0.75245004 -3.12754,-1.04470004 -0.72853,-0.16039 -2.25969,-0.12882 -3.01632,0.0622 -0.77666,0.19606 -1.21369,0.59301 -1.88536,1.71249004 -0.80326,1.3388 -0.89313,2.52082 -0.38075,5.00758 0.48128,2.33581 0.8135,3.3322898 1.83363,5.4999498 0.31482,0.66894 0.87438,2.02421 1.24346,3.0117 1.06742,2.85584 3.1308,7.072 4.63013,9.46083 0.60877,0.96994 1.19923,1.73598 1.26693,1.64369 0.0761,-0.1037 0.59963,-1.01605 0.85519,-1.49025 0.93572,-1.73628 1.37025,-2.69868 1.56074,-3.45669 0.28719,-1.14278 0.77379,-1.23821 1.27491,-0.25002 0.48949,0.96523 0.70361,3.35082 0.44188,4.92297 -0.053,0.31854 -0.0763,0.60057 -0.0517,0.62673 0.13011,0.13842 1.25399,-1.229 1.82416,-2.21946 0.38089,-0.66163 0.77858,-0.75003 1.04221,-0.23167 0.22141,0.43535 0.42312,1.68234 0.42312,2.61577 0,0.42482 0.0298,0.7724 0.0662,0.7724 0.18953,0 1.03125,-1.1847 1.62488,-2.28696 0.34241,-0.63579 0.51154,-0.83922 0.69823,-0.8398 0.39138,-10e-4 0.72977,0.93421 0.8167,2.25768 0.0398,0.60541 0.0928,1.10074 0.11788,1.10074 0.0251,0 0.44124,-0.80846 0.92483,-1.79658 z m -12.12547,-0.93917 c 0,-0.0637 0.0765,-0.21701 0.17007,-0.34068 0.0935,-0.12367 0.17007,-0.17273 0.17007,-0.10902 0,0.0637 -0.0765,0.21702 -0.17007,0.34069 -0.0935,0.12367 -0.17007,0.17272 -0.17007,0.10901 z m 8.87996,-16.2439598 c 0.8638,-1.32126 1.43099,-2.45862 1.65489,-3.31844 0.22022,-0.84576 0.23612,-0.83038 -0.94953,-0.91864 -0.86736,-0.0646 -3.12002,-0.55421 -3.86512,-0.84014 -0.2986,-0.11458 -0.17678,0.92891 0.41904,3.58952 0.31854,1.42245 0.57988,2.7131398 0.58075,2.8682098 8.7e-4,0.15506 0.033,0.39913 0.0714,0.54236 0.0664,0.2478 0.10288,0.23177 0.75174,-0.33034 0.38849,-0.33656 0.96376,-1.0218498 1.33685,-1.5925298 z m 12.0641,1.3068698 c 0.73894,-0.5624198 1.37475,-1.3104598 2.10992,-2.4823698 0.63602,-1.01385 1.03962,-1.91372 1.03962,-2.31794 0,-0.18371 -0.0779,-0.23042 -0.3843,-0.23042 -0.31699,0 -1.49311,-0.27538 -2.28848,-0.53583 -0.14548,-0.0476 -0.20681,0.0883 -0.30338,0.67244 -0.15316,0.92641 -0.47216,3.0208 -0.63034,4.13848 -0.0668,0.4718798 -0.14829,0.9279798 -0.18113,1.0135498 -0.0945,0.24627 0.0551,0.18579 0.63809,-0.25791 z m -3.16375,-2.4316598 c 0.31871,-0.33301 0.76192,-0.89954 0.9849,-1.25895 0.22298,-0.35942 0.57817,-0.92244 0.78932,-1.25116 0.21114,-0.32872 0.41232,-0.73981 0.44706,-0.91354 0.0572,-0.28621 0.0212,-0.32765 -0.38389,-0.44124 -0.66229,-0.18571 -1.60389,-0.28007 -1.94372,-0.19478 -0.27376,0.0687 -0.29879,0.126 -0.29879,0.68396 0,1.12191 -0.27295,2.82162 -0.65181,4.05891 -0.0583,0.19037 -0.0367,0.19744 0.20617,0.0675 0.14921,-0.0799 0.53205,-0.41765 0.85076,-0.75066 z m -4.67063,0.35366 c 0.88883,-0.69248 1.2808,-1.2648 2.12648,-3.10492 0.17023,-0.3704 0.2897,-0.69325 0.26549,-0.71746 -0.0242,-0.0242 -0.27716,0.009 -0.56212,0.0735 -0.28497,0.0646 -1.01271,0.17956 -1.61721,0.25539 -0.93438,0.11721 -1.10555,0.17147 -1.14225,0.36203 -0.0237,0.12329 -0.006,0.96976 0.0397,1.88104 0.0595,1.19051 0.12299,1.65689 0.22553,1.65689 0.0785,0 0.37747,-0.18291 0.66442,-0.40647 z m 15.53098,-6.17495 c 0.51387,-0.22864 1.59217,-1.18960004 1.59217,-1.41890004 0,-0.0563 -0.14626,-0.0731 -0.32503,-0.0373 -0.371,0.0742 -0.67108,-0.18612 -0.55705,-0.48326 0.0388,-0.10106 0.38883,-0.32109 0.77789,-0.48896 l 0.70739,-0.30522 -0.0582,-0.43422996 c -0.0473,-0.35256 0.004,-0.51687 0.27435,-0.87357 0.42408,-0.56019 0.42345,-0.6627 -0.003,-0.44232 -0.48582,0.25123 -0.93243,0.23246 -0.93243,-0.0392 0,-0.22663 0.56804,-0.66863 1.30088,-1.01224 0.30702,-0.14396 0.46965,-0.31633 0.56176,-0.59542 0.16867,-0.51107 0.084,-0.57534 -0.35032,-0.26605 -0.43552,0.31012 -0.86136,0.27576 -0.9111,-0.0735 -0.0271,-0.19035 0.13685,-0.3884 0.67125,-0.81084 0.6426,-0.50796 0.70124,-0.59068 0.64267,-0.90647 -0.0822,-0.44319 -0.38574,-0.85673 -0.87145,-1.1873 -0.5068,-0.34493 -0.5803,-0.33027 -0.58065,0.11583 -5e-4,0.64798 -0.56272,2.51078 -0.9865,3.26857 -0.73349,1.31161 -1.29344,1.71805 -2.28731,1.66026 -0.50069,-0.0291 -0.62548,-0.0826 -0.76199,-0.32679 -0.15249,-0.27274 -0.13159,-0.34096 0.31716,-1.03526 0.26422,-0.4088 0.46068,-0.79867 0.43656,-0.86637 -0.0813,-0.22814 -0.44733,-0.0893 -0.79232,0.30053 -0.86445,0.97678 -1.71703,2.0917 -1.71703,2.24535 0,0.0929 -0.0397,0.16898 -0.0881,0.16898 -0.0485,0 -0.29583,0.17948 -0.54967,0.39884 -0.3698,0.31958 -0.45455,0.46529996 -0.42645,0.73320996 0.0472,0.45031 -0.21402,0.65221 -0.72088,0.55712 -0.45004,-0.0844 -0.6326,0.0766 -0.40193,0.35454 0.0823,0.0991 0.13824,0.32884 0.1244,0.51048 -0.0212,0.27767004 0.0534,0.37600004 0.46854,0.61757004 0.66213,0.38532 1.65181,0.7688 2.28913,0.887 0.91464,0.16963 2.54156,0.0588 3.15705,-0.21507 z m -4.20352,-0.95523 c -0.095,-0.17746004 -0.0924,-0.28195004 0.0101,-0.40542004 0.32492,-0.39152 0.92987,-0.0375 0.69282,0.40542004 -0.0704,0.13149 -0.22853,0.23907 -0.35146,0.23907 -0.12294,0 -0.2811,-0.10758 -0.35147,-0.23907 z m -1.34416,-0.16635004 c -0.11132,-0.29008 0.0499,-0.52126 0.36353,-0.52126 0.34437,0 0.49523,0.27348 0.28836,0.52273 -0.18478,0.22265004 -0.56622,0.22179004 -0.65189,-0.001 z m 2.39808,-0.63015 c -0.13782,-0.0871 -0.14035,-0.13638 -0.0148,-0.2877 0.22531,-0.27148 0.4938,-0.23031 0.44976,0.069 -0.0428,0.29066 -0.19783,0.36863 -0.43499,0.21872 z m -1.31492,-0.54218 c -0.0454,-0.0454 -0.0825,-0.20318 -0.0825,-0.35062 0,-0.19137 0.0853,-0.28948 0.29807,-0.34288 0.36369,-0.0913 0.5453,0.0682 0.49362,0.4335 -0.0275,0.19409 -0.12447,0.28398 -0.33269,0.30826 -0.16165,0.0188 -0.33106,-0.003 -0.37646,-0.0483 z m 2.34999,-0.50727 c 0,-0.0637 0.0552,-0.11584 0.12267,-0.11584 0.0675,0 0.0905,0.0521 0.0511,0.11584 -0.0394,0.0637 -0.0946,0.11583 -0.12267,0.11583 -0.0281,0 -0.0511,-0.0521 -0.0511,-0.11583 z m -1.33524,-0.46840996 c -0.10635,-0.17209 0.16191,-0.45675 0.35911,-0.38107 0.2539,0.0974 0.20591,0.50197 -0.0596,0.50197 -0.12366,0 -0.25846,-0.0544 -0.29956,-0.1209 z m -11.29644,2.31216 c 0.45561,-0.0977 0.58488,-0.17451004 0.58488,-0.34750004 0,-0.12214 0.10038,-0.32245 0.22307,-0.44514 0.28111,-0.28111 0.6833,-0.19292 0.82546,0.18098 0.12368,0.3253 0.0565,0.31734 0.73315,0.0868 0.52515,-0.17894 0.53851,-0.19417 0.31022,-0.35407 -0.32384,-0.22683 -0.30013,-0.5716 0.0553,-0.80451 l 0.29388,-0.19255 -0.26389,-0.13157 c -0.35253,-0.17574996 -0.39279,-0.47441996 -0.098,-0.72683996 l 0.24083,-0.20621 -0.26231,-0.19797 c -0.21646,-0.16335 -0.26232,-0.30878 -0.26232,-0.83187 0,-0.34865 -0.0374,-0.67135 -0.0832,-0.71712 -0.0457,-0.0458 -0.2443,-0.0165 -0.44124,0.0651 -0.81041,0.33568 -2.62801,-0.51421 -3.38803,-1.58421 -0.36646,-0.51592 -0.72346,-1.7825 -0.85179,-3.02199 -0.0684,-0.66097 -0.1087,-0.74526 -0.4597,-0.96219 -0.21158,-0.13076 -0.63439,-0.4474 -0.93959,-0.70364 -0.75988,-0.6380002 -3.42564,-1.9333102 -4.25734,-2.0686702 -0.36176,-0.0589 -1.16228,-0.14103 -1.77893,-0.18257 -0.97426,-0.0656 -1.21987,-0.0423 -1.87412,0.17814 -0.41411,0.13951 -0.79842,0.29766 -0.85402,0.35142 -0.0565,0.0546 0.0926,0.26775 0.33797,0.48317 0.64612,0.56717 1.79023,1.9281202 1.79023,2.1295402 0,0.41857 -0.37397,0.28041 -1.18575,-0.43808 -1.41837,-1.2553402 -1.95005,-1.6171402 -2.14219,-1.4576802 -0.23235,0.19284 -0.8421,1.0937402 -0.8421,1.2442102 0,0.0683 0.48216,0.48393 1.07147,0.92367 0.58931,0.43973 1.30143,1.0366 1.5825,1.32637 0.42229,0.43538 0.48633,0.55663 0.36879,0.69826 -0.18346,0.22105 -0.53654,0.10082 -2.29778,-0.78248 -0.71516,-0.35867 -1.32723,-0.65212 -1.36014,-0.65212 -0.11411,0 -0.0592,1.38046 0.0658,1.65482 0.15161,0.33274 0.86384,0.69358 2.91361,1.4761 0.84493,0.32255 1.67892,0.64224 1.85331,0.7104 0.17439,0.0682 0.29177,0.16489 0.26083,0.21494 -0.12587,0.20367 -1.40663,0.23781 -2.31542,0.0617 -0.50967,-0.0987 -1.00336,-0.17956 -1.09709,-0.17958 -0.0937,-10e-6 0.15483,0.32813 0.55233,0.72919 0.57418,0.57934 0.97821,0.85268 1.96584,1.32996 3.01999,1.45942996 6.79436,2.93099996 8.06007,3.14248 0.86822,0.14507 2.29211,0.1457 2.96536,10e-4 z m -2.25946,-0.58970004 c -0.0819,-0.25806 0.21918,-0.60395 0.45677,-0.52475 0.19462,0.0649 0.34232,0.38999 0.2667,0.58705 -0.10983,0.2862 -0.62699,0.24166 -0.72347,-0.0623 z m 1.731,-0.37717 c -0.11533,-0.30055 0.0463,-0.54896 0.33094,-0.50854 0.19144,0.0272 0.26114,0.11437 0.26114,0.32667 0,0.21229 -0.0697,0.29948 -0.26114,0.32666 -0.15664,0.0222 -0.28908,-0.0357 -0.33094,-0.14479 z m 1.59984,-0.55255 c -0.33127,-0.33127 -0.0264,-0.83694996 0.46276,-0.76759996 0.48964,0.0694 0.37011,0.90660996 -0.12944,0.90660996 -0.10687,0 -0.25687,-0.0625 -0.33332,-0.13901 z m -4.50002,-0.38538 c -0.0427,-0.11127 -0.006,-0.23760996 0.0872,-0.29625996 0.22954,-0.14519 0.39334,-0.0654 0.39334,0.19161996 0,0.27981 -0.38147,0.36287 -0.48056,0.10464 z m 1.29173,-0.40124996 c -0.0983,-0.30988 0.0153,-0.46438 0.34162,-0.46438 0.31376,0 0.47473,0.30488 0.28296,0.53594 -0.19378,0.23348996 -0.54036,0.19378996 -0.62458,-0.0716 z m 1.90753,-0.41058 c -0.21047,-0.2536 -0.007,-0.57505 0.36354,-0.57505 0.23052,0 0.27697,0.0583 0.27697,0.3475 0,0.2641 -0.058,0.35579 -0.24181,0.38205 -0.13299,0.019 -0.31241,-0.0505 -0.3987,-0.1545 z m 1.39932,-0.56796 c -0.0877,-0.10569 -0.11721,-0.2989 -0.0727,-0.47623 0.0601,-0.23946 0.13471,-0.29123 0.37771,-0.26213 0.16656,0.0199 0.35994,0.12748 0.42975,0.23897 0.2668,0.42609 -0.41245,0.88775 -0.73476,0.49939 z m -4.68914,-0.47894 c -0.22693,-0.22692 -0.23164,-0.44302 -0.0136,-0.62397 0.25552,-0.21206 0.64265,-0.0381 0.64265,0.2887 0,0.37708 -0.38307,0.58125 -0.62904,0.33527 z m 2.02831,-0.21201 c -0.23783,-0.28657 -0.0433,-0.66795 0.31923,-0.62602 0.25774,0.0298 0.30861,0.093 0.30861,0.3832 0,0.2641 -0.058,0.35579 -0.24181,0.38205 -0.13299,0.019 -0.30671,-0.0437 -0.38603,-0.13923 z m 9.68101,1.88008996 c 0.91518,-0.63265996 1.90552,-1.60368996 3.27986,-3.21589996 0.92847,-1.08916 1.24253,-1.30493 1.90656,-1.30984 0.80949,-0.006 1.08449,0.68466 0.70307,1.76574 -0.22436,0.63591 -0.22053,0.6573 0.0707,0.39441 0.41967,-0.37883 0.98929,-1.67815 1.26067,-2.87566 0.22803,-1.00619 0.2433,-1.22566 0.12278,-1.7642 -0.20749,-0.92716 -0.47887,-1.09121 -1.66688,-1.00758 -0.77708,0.0547 -1.23301,0.17949 -2.55823,0.70026 -2.14872,0.84437 -2.51567,0.84292 -3.59993,-0.0142 -0.95291,-0.75325 -3.46351,-2.2957502 -4.08413,-2.5092702 -0.78712,-0.27081 -1.25451,-0.2771 -2.35944,-0.0317 -0.96025,0.21323 -1.36144,0.38974 -1.96685,0.8653602 -0.61827,0.48574 -0.65931,1.09299 -0.2363,3.49684 0.11992,0.68142 0.63625,1.26592 1.46497,1.65836 1.06533,0.5045 1.39726,0.31332 1.0255,-0.59064 -0.22979,-0.55878 -0.32389,-0.61452 -0.61096,-0.36192 -0.12512,0.11011 -0.26517,0.12958 -0.4435,0.0617 -0.20235,-0.0771 -0.26062,-0.19075 -0.26062,-0.50842 0,-0.73846 0.71445,-1.16392 1.37816,-0.8207 0.57042,0.29497 1.17409,1.43543 1.81199,3.42324 0.17379,0.54153 0.41323,1.20556 0.5321,1.47563 0.11886,0.27007 0.21612,0.54108 0.21612,0.60224 0,0.0612 0.17433,0.24417 0.3874,0.40668 0.40552,0.30930996 0.96734,0.38450996 1.34852,0.18050996 0.25006,-0.13382996 1.58551,-2.13569996 2.08557,-3.12630996 0.33022,-0.65417 0.5336,-0.89817 0.65087,-0.78089 0.13371,0.13371 -0.89704,2.67688 -1.78278,4.39863996 -0.0246,0.0478 0.0684,0.0869 0.20666,0.0869 0.13824,0 0.6414,-0.26964 1.11813,-0.5992 z m -24.58949,-6.71285996 c 0.1435,-0.71747 0.0919,-0.88162 -0.36198,-1.15277 -0.37601,-0.22461 -3.15579,-1.9936702 -6.3155,-4.0192202 -2.3018,-1.47557 -3.95976,-2.48231 -4.71134,-2.8608 l -0.809637,-0.40774 0.291607,0.43393 c 0.73823,1.09847 1.73795,2.04814 3.05535,2.90238 0.7352,0.47674 1.80586,1.21409 2.37924,1.63857 0.96062,0.71115 3.43499,2.3670002 4.50506,3.0147802 0.4179,0.25298 1.65707,0.80383 1.82241,0.81011 0.0398,0.002 0.10497,-0.16015 0.14479,-0.35924 z m 1.3257,-3.2984702 c 0.27521,-0.35633 0.48371,-0.66205 0.46334,-0.67937 -0.32452,-0.27595 -2.74272,-1.59582 -4.49667,-2.45431 -1.24233,-0.60806 -3.04539,-1.49993 -4.0068,-1.98193 -1.027,-0.51488 -1.91091,-0.88381 -2.14294,-0.89443 -0.2172,-0.01 -0.57736,-0.0585 -0.80034,-0.10789 -0.24835,-0.055 0.49211,0.43392 1.91127,1.26205 3.97217,2.31788 5.35476,3.19773 6.3042,4.01184 0.64202,0.5505 1.99143,1.48406 2.15173,1.48862 0.0637,0.002 0.341,-0.28825 0.61621,-0.64458 z m 22.23795,-2.03861 c 0.19419,-0.19418 0.1732,-0.97696 -0.0462,-1.72228 -0.27609,-0.938 -1.12889,-2.52018 -2.10809,-3.91104 -0.47846,-0.67962 -1.11186,-1.63067 -1.40755,-2.11346 -0.56928,-0.92948 -0.50549,-0.69023 -1.18663,-4.4506 -0.26762,-1.47747 -0.41192,-1.80068 -1.35451,-3.03403 -0.94324,-1.23419 -1.18988,-1.4517 -1.59376,-1.4055 -0.51389,0.0588 -0.51137,0.59223 0.006,1.31994 1.58969,2.23492 2.07748,3.90049 1.92281,6.5655 l -0.0588,1.01339 0.34751,0.25535 c 0.19112,0.14044 0.45175,0.38376 0.57917,0.54072 0.67144,0.82711 1.23742,1.63386 1.47277,2.09927 0.14521,0.28716 0.50445,0.91335 0.7983,1.39153 0.74279,1.20869 1.0939,1.92725 1.3174,2.69607 0.10549,0.36284 0.27949,0.71088 0.38668,0.77341 0.27066,0.15789 0.75813,0.14826 0.92465,-0.0183 z m -9.05705,-0.29715 c 0.0708,-0.0468 0.22512,-0.26754 0.34305,-0.49052 0.2791,-0.52772 0.27587,-1.9678 -0.007,-3.12208 -0.19968,-0.81481 -0.51137,-1.31815 -1.80457,-2.91417 -0.28189,-0.34789 -0.3202,-0.85791 -0.14575,-1.94041 0.14896,-0.92439 0.0145,-1.70203 -0.36247,-2.09555 -0.32343,-0.33768 -0.55328,-0.85408 -0.74997,-1.685 -0.0754,-0.31855 -0.20896,-0.67571 -0.29677,-0.7937 -0.15228,-0.20461 -0.18641,-0.20565 -0.73774,-0.0225 -0.80972,0.26894 -2.13138,0.24655 -3.22925,-0.0547 -2.16961,-0.59536 -3.39196,-1.11885 -4.69394,-2.01022 -0.41935,-0.28709 -0.962,-0.62562 -1.20591,-0.75228 -0.2439,-0.12666 -0.59494,-0.35133 -0.78008,-0.49928 -2.37589,-1.898524 -4.64199,-4.159896 -5.79742,-5.785316 -1.00077,-1.407849 -1.77512,-2.321652 -1.8562,-2.190471 -0.12163,0.196815 0.17765,1.071495 0.55447,1.620469 0.19868,0.289445 0.62381,0.87424 0.94472,1.299545 0.32092,0.425304 0.792,1.073889 1.04683,1.441299 0.73357,1.05762 1.72032,2.165716 2.4526,2.754214 1.41282,1.13539 2.79132,2.1367 3.2873,2.3878 0.89791,0.4546 1.15226,0.68217 1.15226,1.03097 0,0.27789 -0.0665,0.34096 -0.4923,0.467 -0.78347,0.23193 -2.45763,1.13946 -3.02776,1.64132 -1.06783,0.93994 -2.04,2.8864 -2.04,4.08446 0,0.50349 0.44202,1.91229 0.78604,2.50526 0.16632,0.28669 0.43542,0.76347 0.59799,1.05951 0.35398,0.64463 1.78761,1.7659 2.97979,2.33055 l 0.79082,0.37456 1.85335,-0.0211 c 2.76625,-0.0315 4.39165,-0.44537 5.22896,-1.33134 0.54656,-0.57831 1.38161,-1.95061 1.5045,-2.47246 0.20027,-0.85039 0.96434,-0.6311 1.50269,0.43127 0.16679,0.32916 0.47654,0.85036 0.68831,1.15823 0.4886,0.7103 0.85409,1.67867 0.99674,2.64085 0.16203,1.09294 0.20015,1.1633 0.51671,0.95386 z m -12.23334,-2.31524 c -1.28107,-0.54364 -1.76391,-0.84595 -2.41297,-1.51075 -0.76804,-0.78668 -1.37101,-1.70984 -1.50323,-2.30148 -0.20087,-0.89887 0.0724,-1.75043 0.50799,-1.58326 0.0881,0.0338 0.27277,0.25175 0.41042,0.48434 0.28851,0.4875 0.75687,0.9342 1.89736,1.80963 0.89553,0.68741 1.60659,0.96582 3.27545,1.2825 0.91214,0.17308 1.21525,0.18402 2.00491,0.0724 0.51166,-0.0724 1.25304,-0.26658 1.64751,-0.43159 1.01219,-0.42343 1.06991,-0.41979 1.02488,0.0646 -0.0671,0.7216 -0.73807,1.25491 -2.47479,1.96701 -0.96983,0.39765 -1.13392,0.42907 -2.33389,0.44695 -1.17367,0.0175 -1.359,-0.01 -2.04364,-0.3003 z m 6.05269,-3.66141 c -0.2391,-0.21417 -1.19009,-0.99702 -2.11332,-1.73966 -1.79869,-1.44685 -2.28338,-1.70006 -3.82354,-1.99752 -0.82777,-0.15987 -0.90155,-0.15597 -1.56377,0.0826 -0.38225,0.1377 -0.90074,0.40024 -1.1522,0.58342 -0.57516,0.41898 -0.75925,0.42251 -0.75842,0.0145 0.002,-1.13846 0.68294,-1.96708 2.26504,-2.75752 1.09002,-0.54459 1.1015,-0.54736 2.00798,-0.48523 0.51176,0.0351 1.10822,0.1545 1.35968,0.27224 0.45032,0.21085 2.64737,2.32861 3.65832,3.5263 0.85889,1.01754 1.32401,2.33568 0.95453,2.70515 -0.25815,0.25816 -0.34062,0.23797 -0.8343,-0.20427 z m 2.01195,-1.13869 c -0.16281,-0.21075 -0.5278,-0.69593 -0.81109,-1.07818 -0.28328,-0.38225 -0.98871,-1.21527 -1.56761,-1.85115 -1.45186,-1.59474 -1.4008,-1.90101 0.20314,-1.21847 0.72689,0.30932 0.94525,0.34751 1.98723,0.34751 h 1.17061 l 0.18917,0.43438 c 0.12615,0.28964 0.19172,0.78174 0.1968,1.47689 0.007,0.88969 -0.0348,1.12741 -0.28196,1.62168 -0.36621,0.73241 -0.66935,0.80701 -1.08629,0.26734 z m 5.79639,3.58416 c -0.0321,-0.0796 -0.0584,-0.0145 -0.0584,0.1448 0,0.15927 0.0263,0.22442 0.0584,0.14479 0.0321,-0.0796 0.0321,-0.20995 0,-0.28959 z m -0.0767,-0.61497 c 0,-0.22674 -0.0434,-0.38541 -0.0965,-0.3526 -0.0913,0.0564 -0.0434,0.76486 0.0518,0.76486 0.0246,0 0.0448,-0.18551 0.0448,-0.41226 z m -46.797177,49.11559 c -2.30423,-0.2408 -4.43856,-0.61132 -6.34104,-1.10081 -2.22259,-0.57185 -3.46985,-1.0508 -4.17143,-1.60182 -0.30235,-0.23747 -0.80352,-0.60524 -1.11372,-0.81728 -1.69221,-1.15672 -3.55737,-3.43313 -5.03665,-6.14716 -0.37912,-0.69559 -0.72074,-1.43311 -2.04075,-4.40582 -0.26975,-0.6075 -0.76471,-1.98883 -1.09991,-3.06962 -0.33519,-1.0808 -0.81341,-2.59059 -1.06269,-3.3551 -0.24929,-0.76451 -0.66494,-2.2240198 -0.92367,-3.2433698 -1.12821,-4.44497 -1.72887,-5.90678 -3.49834,-8.51384004 -0.35096,-0.51707996 -0.51836,-0.73161996 -1.41167,-1.80912996 -0.94043,-1.13436 -3.16091,-3.50462 -4.55989,-4.86746 -0.20166,-0.19645 -0.25503,-0.34254 -0.20212,-0.55332 0.12604,-0.50222 1.6723,-2.6689702 2.57563,-3.6092202 0.31058,-0.32327 0.75052,-0.7924 0.97764,-1.04251 0.22712,-0.25011 0.67018,-0.68421 0.98459,-0.96468 0.31441,-0.28047 0.85834,-0.77632 1.20874,-1.10189 0.55248,-0.51334 1.42427,-1.19078 3.30129,-2.56537 1.22152,-0.89454 2.48587,-1.65489 4.51755,-2.71676 1.89787,-0.99192 7.64661,-2.92864 12.0468,-4.0585 0.95563,-0.24539 2.43087,-0.68459 3.2783,-0.97601 0.84743,-0.29142 1.87588,-0.60757 2.28546,-0.70256 0.40957,-0.095 0.87556,-0.22246 1.03553,-0.28328 0.34651,-0.13175 0.64037,-0.0426 0.64037,0.19419 0,0.0939 -0.18796,0.388 -0.41768,0.65365 -0.29,0.33537 -0.58211,0.92963 -0.95563,1.94411 -0.54533,1.48112 -0.74042,1.84019 -0.99979,1.84019 -0.0791,0 -0.318,0.15203 -0.53083,0.33785 -0.21283,0.18582 -0.78024,0.54827 -1.26092,0.80545 -0.77802,0.41627 -1.6937,1.03531 -3.99602,2.70148 -2.03502,1.47272 -3.82909,3.57743 -5.67503,6.65764 -1.07882,1.8001802 -1.61716,3.1670502 -2.34183,5.9460902 -0.48085,1.84402 -0.58687,3.20144 -0.56092,7.18174 0.0186,2.85421 0.13966,3.71364 1.04416,7.41342 0.76573,3.1321598 1.15714,4.1192298 2.54525,6.4186698 0.99291,1.64479 1.52384,2.38485 2.73699,3.81508 1.04262,1.2292 4.31353,4.33508 4.93055,4.68178 0.19662,0.11049 0.8719,0.49833 1.50062,0.86188 1.59512,0.92236 3.94725,1.76056 6.27823,2.23731 0.48857,0.0999 1.33137,0.28276 1.87289,0.40629 0.54153,0.12354 2.05146,0.38575 3.35541,0.5827 1.30394,0.19695 2.4026,0.37773 2.44145,0.40175 0.0389,0.024 0.69667,0.0518 1.46182,0.0617 1.6172,0.0209 2.00326,0.0774 2.09091,0.30578 0.0952,0.24806 -0.0778,0.35252 -0.71991,0.43476 -0.31854,0.0408 -1.56956,0.339 -2.78003,0.66267 -3.33278,0.89114 -3.41902,0.90588 -5.96548,1.01956 -2.99719,0.13381 -3.6578,0.1265 -5.44423,-0.0602 z m 58.875147,-47.57394 c -0.31583,-0.34173 -1.07368,-1.73363 -1.07368,-1.97197 0,-0.28888 0.20167,-0.35176 1.04886,-0.32702 0.99817,0.0292 1.45817,-0.16338 2.01555,-0.84359 0.24119,-0.29434 0.53467,-0.53517 0.65217,-0.53517 0.73204,0 0.46298,1.83097 -0.42394,2.88502 -0.83402,0.99117 -1.7373,1.31387 -2.21896,0.79273 z m -2.27547,-4.50307 c -0.16898,-0.84494 -0.0794,-1.44618 0.34041,-2.2854 0.55725,-1.11386 1.40547,-2.02864 2.1007,-2.26553 0.77494,-0.26404 0.96103,-0.23579 1.73291,0.2631 0.61843,0.39971 0.71819,0.52024 0.94463,1.14128 0.2763,0.75776 0.31761,1.13835 0.13577,1.25073 -0.0646,0.0399 -0.54636,-0.0928 -1.07064,-0.29504 l -0.95322,-0.3676 -0.61866,0.19502 c -0.87564,0.27602 -1.64985,1.05424 -1.99114,2.00146 -0.28572,0.79297 -0.50857,0.92292 -0.62076,0.36198 z m -86.034607,-14.727209 c -0.007,-0.01486 -0.0312,-4.626856 -0.0536,-10.248887 -0.0395,-9.918868 -0.0342,-10.227899 0.17919,-10.425113 0.22421,-0.207225 3.66583,-2.361113 5.44744,-3.409203 1.32121,-0.777248 4.6769,-2.527846 4.84558,-2.527846 0.10179,0 0.11826,1.583663 0.0672,6.457778 -0.0372,3.551778 -0.0762,6.461269 -0.0867,6.465535 -0.25663,0.104926 -4.81103,2.567736 -5.49216,2.969906 l -0.95563,0.564255 v 3.851909 3.85191 l -0.78189,0.456646 c -0.43003,0.251155 -1.31617,0.808428 -1.96919,1.238384 -0.65301,0.429957 -1.19312,0.769583 -1.20022,0.754726 z m 5.23109,-15.230301 1.14498,-0.666049 0.004,-2.113981 c 0.002,-1.16269 -0.0289,-2.113981 -0.0688,-2.113981 -0.04,0 -0.58598,0.299722 -1.21328,0.666048 l -1.14056,0.666049 -0.003,2.113981 c -0.002,1.16269 0.0274,2.113982 0.0644,2.113982 0.0371,0 0.58264,-0.299722 1.21238,-0.666049 z m 90.808717,14.197365 c -0.86007,-0.564521 -1.7325,-1.112745 -1.93872,-1.218275 l -0.37494,-0.191872 -0.0305,-3.88173 -0.0305,-3.881729 -1.15835,-0.65676 -1.15834,-0.656759 -0.0305,3.813898 -0.0305,3.813897 -0.60656,-0.340629 c -0.33361,-0.187347 -1.23207,-0.667261 -1.99658,-1.066477 -0.76451,-0.399217 -1.40757,-0.740388 -1.42903,-0.758158 -0.10148,-0.08402 -0.1114,-20.553519 -0.01,-20.553519 0.40596,0 5.97234,3.119836 8.80372,4.934293 l 1.68883,1.08227 -0.0361,10.272017 c -0.0199,5.64961 -0.0501,10.281899 -0.0671,10.293977 -0.0171,0.01208 -0.73472,-0.439922 -1.59479,-1.004444 z m -2.31669,-15.647345 v -2.116029 l -1.11814,-0.635043 c -0.61497,-0.349273 -1.16229,-0.652417 -1.21626,-0.673654 -0.054,-0.02124 -0.097,0.917024 -0.0957,2.085023 l 0.002,2.123634 1.12699,0.659522 c 0.61985,0.362737 1.16609,0.662459 1.21387,0.666049 0.0478,0.0036 0.0869,-0.945686 0.0869,-2.109502 z m -80.157317,-1.154744 2.3e-4,-10.339791 0.60791,-0.245404 c 0.33434,-0.134971 1.25947,-0.509256 2.05583,-0.831744 2.70939,-1.09717 7.99253,-2.919145 8.46457,-2.919145 0.0649,0 0.10719,4.057198 0.10719,10.28156 v 10.281559 l -2.10234,0.672585 c -1.44876,0.463491 -2.12727,0.63225 -2.18252,0.542842 -0.0441,-0.07136 -0.0693,-1.744099 -0.0561,-3.717201 0.0137,-2.03966 -0.021,-3.615355 -0.0805,-3.652119 -0.0575,-0.03556 -0.65003,0.13311 -1.31664,0.374831 l -1.21202,0.439492 v 3.834892 3.834891 l -1.70856,0.702275 c -0.93971,0.38625 -1.90403,0.787323 -2.14294,0.891271 l -0.43438,0.188997 z m 5.67567,-3.931552 c 0.54153,-0.189223 1.03416,-0.392359 1.09473,-0.451412 0.12218,-0.119107 0.17448,-2.138823 0.0887,-3.426982 l -0.0552,-0.829358 -1.05644,0.38494 c -0.58104,0.211717 -1.14766,0.421097 -1.25915,0.465289 -0.18285,0.07248 -0.20271,0.290225 -0.20271,2.223288 0,1.995036 0.014,2.137257 0.20271,2.060608 0.11149,-0.04528 0.64578,-0.23715 1.18731,-0.426373 z m 64.172367,13.98933 c -0.15928,-0.08459 -1.04541,-0.455736 -1.96919,-0.824777 -0.92378,-0.369041 -1.73826,-0.727783 -1.80995,-0.797204 -0.0717,-0.06942 -0.64507,-1.689987 -1.27418,-3.601258 l -1.14383,-3.475037 -0.0309,3.098575 c -0.017,1.704216 -0.0645,3.098575 -0.10569,3.098575 -0.0412,0 -0.70491,-0.204113 -1.475,-0.453584 -0.77009,-0.249471 -1.69989,-0.539861 -2.06621,-0.64531 l -0.66605,-0.191725 v -10.301059 c 0,-6.366678 0.0417,-10.301058 0.10911,-10.301058 0.51194,0 6.31345,2.029785 9.35964,3.27468 l 1.76575,0.721613 7.3e-4,6.457778 c 4e-4,3.551778 -0.0432,6.457778 -0.0968,6.457778 -0.0537,0 -0.6058,-0.212362 -1.22699,-0.471917 -0.62118,-0.259554 -1.15916,-0.442187 -1.19549,-0.405852 -0.0525,0.05251 1.62249,5.783172 2.34723,8.030555 0.1444,0.44778 0.14106,0.491877 -0.0369,0.487659 -0.10762,-0.0026 -0.32599,-0.07384 -0.48526,-0.158432 z m -3.59088,-15.638224 v -2.132813 l -0.8398,-0.309882 c -0.46189,-0.170436 -1.03632,-0.383495 -1.27652,-0.473466 -0.2402,-0.08997 -0.46173,-0.163583 -0.4923,-0.163583 -0.0306,0 -0.0556,0.957242 -0.0556,2.127203 v 2.127203 l 0.4923,0.178154 c 0.27076,0.09798 0.83111,0.308688 1.24522,0.46823 0.41411,0.159542 0.79202,0.294957 0.8398,0.300921 0.0478,0.006 0.0869,-0.94892 0.0869,-2.121967 z m -51.778057,0.650118 v -10.313131 l 1.01355,-0.23384 c 1.77238,-0.408913 3.40068,-0.738426 3.43748,-0.69563 0.0336,0.03903 0.79539,2.526812 2.01677,6.58586 l 0.54019,1.795233 0.0303,-4.421567 0.0303,-4.421567 0.31718,-0.0673 c 0.44252,-0.0939 3.71823,-0.529675 3.98157,-0.529675 0.20924,0 0.21606,0.325131 0.21606,10.300058 v 10.300059 l -0.78188,0.08211 c -0.43003,0.04516 -1.73732,0.224231 -2.90508,0.397933 l -2.1232,0.315822 -0.089,-0.243921 c -0.049,-0.134156 -0.31848,-0.960151 -0.59892,-1.835544 -0.28043,-0.875393 -0.54195,-1.592119 -0.58116,-1.592725 -0.0392,-6.07e-4 -0.0742,0.863513 -0.0777,1.920265 -0.003,1.056752 -0.0245,1.939456 -0.0466,1.961564 -0.0221,0.02211 -0.89936,0.231968 -1.94944,0.466356 -1.05008,0.234388 -2.02652,0.452398 -2.16987,0.484466 l -0.26063,0.05831 z m 40.657937,10.107135 c -2.30251,-0.575676 -6.02143,-1.217393 -10.04865,-1.733938 l -0.60813,-0.078 v -10.29841 -10.298408 h 0.34352 c 1.17128,0 6.74274,0.965453 10.40014,1.802195 l 0.8398,0.19213 v 2.130371 c 0,1.756958 -0.0286,2.130372 -0.16348,2.130372 -0.0899,0 -0.70239,-0.126583 -1.36106,-0.281295 -1.77124,-0.416041 -4.78848,-0.992886 -5.19337,-0.992886 h -0.35323 l 0.0316,2.110263 0.0316,2.110263 1.21626,0.201661 c 0.66895,0.110914 2.24574,0.424324 3.504,0.696468 l 2.28773,0.494806 v 2.181963 c 0,2.024323 -0.0146,2.177508 -0.20271,2.12031 -0.79327,-0.241265 -6.29733,-1.343974 -6.7083,-1.343974 -0.1219,0 -0.1549,0.344009 -0.1549,1.614847 0,0.888167 0.0425,1.641108 0.0944,1.673203 0.0519,0.03209 0.74259,0.168625 1.53481,0.303399 1.34933,0.229554 4.02398,0.79172 5.0023,1.051399 l 0.43438,0.115299 v 2.138475 c 0,1.638811 -0.0338,2.136173 -0.14479,2.128624 -0.0796,-0.0054 -0.43149,-0.08153 -0.78189,-0.169137 z m -22.124397,-10.443367 v -8.153042 l -1.65065,0.07239 c -0.90785,0.03981 -1.7158,0.0926 -1.79543,0.117297 -0.11231,0.03483 -0.1448,-0.445439 -0.1448,-2.140449 v -2.185356 l 1.59273,-0.09261 c 2.04417,-0.118864 6.467397,-0.119003 8.508877,-2.66e-4 l 1.58776,0.09235 0.0339,2.074801 c 0.0187,1.14114 0.0208,2.113537 0.005,2.160882 -0.016,0.04734 -0.76823,0.04476 -1.67155,-0.0057 -0.90332,-0.05051 -1.71118,-0.06544 -1.79524,-0.03318 -0.12455,0.04779 -0.15284,1.555175 -0.15284,8.142253 v 8.083601 l -2.25878,0.01006 -2.258767,0.01006 z"
           id="path8" /></g></g></g></svg>
