<svg width="1370" height="301" viewBox="0 0 1370 301" fill="none" xmlns="http://www.w3.org/2000/svg">
<path d="M0 221.176H46.2311V161.074C49.6985 161.717 53.1661 162.188 56.5911 162.444C60.0581 162.744 63.4392 162.872 66.7786 162.872C75.5104 162.872 83.5597 161.801 90.9641 159.619C98.3706 157.478 104.835 154.097 110.357 149.559C115.878 144.979 120.159 139.115 123.242 132.008C126.323 124.859 127.864 116.298 127.906 106.368C127.864 96.5207 126.579 88.2173 124.054 81.3249C121.529 74.4768 118.018 68.8245 113.523 64.4585C109.03 60.0497 103.849 56.6254 97.9424 54.2281C92.0344 51.7877 85.6987 50.1179 78.9347 49.176C72.1293 48.2349 65.1942 47.764 58.0459 47.8073C51.4098 47.8073 44.6898 48.0636 37.8404 48.5352C31.034 49.0059 24.3996 49.6903 17.9769 50.5894C11.5151 51.4448 5.52176 52.5151 0 53.714V221.176ZM46.2311 81.1968C48.0288 80.8106 49.9551 80.5542 51.9678 80.3829C53.9356 80.2112 55.9915 80.1696 58.0459 80.1696C61.0852 80.1266 64.1233 80.511 67.0785 81.2822C70.0319 82.0527 72.7287 83.4229 75.1693 85.3917C77.608 87.3613 79.5341 90.143 80.9907 93.6958C82.4455 97.2914 83.173 101.829 83.2167 107.395C83.2167 112.317 82.5308 116.341 81.204 119.466C79.8771 122.59 78.0357 125.031 75.7254 126.744C73.3716 128.455 70.6746 129.654 67.6346 130.34C64.5516 130.981 61.2983 131.324 57.7895 131.28C55.8631 131.28 53.9355 131.28 52.0092 131.195C50.0831 131.152 48.1574 131.024 46.2311 130.767V81.1968Z" fill="#F6EECB"/>
<path d="M195.199 221.176H241.43V162.872C242.543 163.13 243.699 163.343 244.811 163.471C245.969 163.642 247.252 163.771 248.622 163.899L282.783 221.176H332.61L291.514 159.276C297.893 156.622 303.458 152.942 308.166 148.232C312.876 143.525 316.514 137.701 319.125 130.767C321.737 123.789 323.064 115.698 323.106 106.368C323.064 96.5207 321.779 88.2173 319.253 81.3249C316.728 74.4768 313.217 68.8245 308.723 64.4585C304.229 60.0497 299.048 56.6254 293.142 54.2281C287.233 51.7877 280.898 50.1179 274.134 49.176C267.329 48.2349 260.393 47.764 253.245 47.8073C246.61 47.8073 239.846 48.0636 232.997 48.5352C226.148 49.0059 219.512 49.647 213.049 50.504C206.584 51.36 200.634 52.344 195.199 53.4574V221.176ZM241.43 80.6827C243.229 80.4263 245.111 80.2976 247.037 80.2113C249.007 80.1697 251.063 80.1696 253.245 80.1696C256.285 80.1266 259.323 80.511 262.278 81.2822C265.231 82.0527 267.928 83.4229 270.368 85.3917C272.807 87.3613 274.733 90.143 276.19 93.6958C277.645 97.2914 278.373 101.829 278.416 107.395C278.416 112.83 277.73 117.24 276.403 120.708C275.076 124.132 273.235 126.785 270.925 128.67C268.571 130.553 265.874 131.838 262.834 132.565C259.751 133.293 256.498 133.636 252.988 133.592C251.191 133.592 249.264 133.464 247.296 133.293C245.326 133.121 243.356 132.95 241.43 132.822V80.6827Z" fill="#F6EECB"/>
<path d="M468.223 46.5255C455.725 46.5682 445.109 48.1954 436.291 51.4065C427.471 54.6162 420.195 59.1102 414.501 64.8039C408.765 70.4976 404.313 77.0897 401.06 84.5811C397.849 92.0725 395.623 100.163 394.339 108.81C393.013 117.414 392.413 126.276 392.455 135.394C392.413 144.425 393.013 153.245 394.211 161.848C395.451 170.453 397.636 178.5 400.717 185.992C403.842 193.483 408.252 200.075 413.859 205.769C419.51 211.461 426.702 215.87 435.476 219.081C444.251 222.293 454.911 223.961 467.453 224.004C480.081 223.961 490.869 222.293 499.731 219.081C508.591 215.87 515.911 211.376 521.605 205.681C527.342 199.989 531.793 193.398 535.003 185.907C538.171 178.415 540.397 170.366 541.681 161.763C542.923 153.201 543.523 144.383 543.48 135.394C543.523 126.276 542.966 117.414 541.725 108.81C540.483 100.163 538.299 92.0725 535.175 84.5811C532.049 77.0897 527.683 70.4976 522.033 64.8039C516.34 59.1102 509.104 54.6162 500.329 51.4065C491.512 48.1954 480.809 46.5682 468.223 46.5255ZM467.967 187.789C461.418 187.746 456.109 186.376 452.042 183.723C447.977 181.069 444.894 177.345 442.753 172.592C440.656 167.798 439.201 162.275 438.474 155.942C437.702 149.605 437.359 142.757 437.403 135.394C437.359 127.902 437.702 120.882 438.474 114.375C439.201 107.911 440.656 102.175 442.753 97.2512C444.894 92.3288 447.977 88.4762 452.042 85.6947C456.109 82.9111 461.418 81.4997 467.967 81.4565C474.603 81.4997 479.954 82.9111 483.977 85.6947C488.001 88.4762 491.084 92.3288 493.138 97.2512C495.192 102.175 496.605 107.911 497.29 114.375C498.018 120.882 498.317 127.902 498.275 135.394C498.317 142.757 497.976 149.605 497.248 155.942C496.519 162.275 495.151 167.798 493.053 172.592C490.956 177.345 487.916 181.069 483.849 183.723C479.825 186.376 474.516 187.746 467.967 187.789Z" fill="#F6EECB"/>
<path d="M657.003 221.176H700.666L763.746 33.0698H814.191V-0.000801847H543.48V33.0698H593.926L657.003 221.176ZM717.927 33.0698L678.834 159.02L639.517 33.0698H717.927Z" fill="#F6EECB"/>
<path d="M965.728 221.176L909.737 49.605H861.708L803.918 221.176H850.92L862.991 181.878H907.426L919.753 221.176H965.728ZM897.409 149.003H873.009L885.336 97.8908L897.409 149.003Z" fill="#F6EECB"/>
<path d="M1112.13 79.915C1116.96 79.915 1122.23 80.5139 1127.92 81.6706C1133.62 82.8263 1139.91 84.3677 1146.8 86.336L1153.73 54.4877C1145.86 52.0051 1138.24 50.0777 1130.96 48.666C1123.68 47.2527 1116.28 46.5681 1108.79 46.5254C1100.1 46.4821 1091.58 47.3807 1083.23 49.2223C1074.84 51.0633 1067.01 54.06 1059.69 58.1684C1052.37 62.2787 1045.86 67.7572 1040.25 74.6076C1034.69 81.413 1030.28 89.803 1027.11 99.7354C1023.9 109.709 1022.27 121.395 1022.23 134.879C1022.32 148.963 1023.82 161.12 1026.77 171.308C1029.68 181.497 1033.75 190.015 1039.01 196.864C1044.28 203.714 1050.4 209.108 1057.46 213.131C1064.52 217.155 1072.27 220.024 1080.66 221.735C1089.01 223.448 1097.79 224.303 1106.99 224.26C1111.23 224.26 1115.77 224.047 1120.6 223.704C1125.48 223.32 1130.49 222.762 1135.67 222.078C1140.85 221.394 1145.99 220.579 1151.17 219.638L1149.11 186.505C1145.13 186.934 1141.19 187.361 1137.21 187.746C1133.27 188.132 1129.51 188.432 1125.91 188.688C1122.31 188.945 1119.1 189.073 1116.24 189.073C1109.73 189.159 1103.61 188.388 1098 186.847C1092.35 185.307 1087.38 182.524 1083.15 178.543C1078.86 174.562 1075.53 168.955 1073.13 161.763C1070.73 154.571 1069.53 145.324 1069.49 134.108C1069.53 123.75 1070.65 115.061 1072.79 108.082C1074.97 101.105 1077.97 95.5398 1081.86 91.3881C1085.71 87.278 1090.25 84.325 1095.39 82.5267C1100.53 80.7289 1106.13 79.873 1112.13 79.915Z" fill="#F6EECB"/>
<path d="M298.439 287.796H307.158L302.828 275.456L298.439 287.796ZM290.352 299.417L300.741 271.451H304.934L315.355 299.417H311.234L308.272 291.062H297.267L294.286 299.417H290.352ZM339.556 299.417V271.451H343.394V295.885H357.328V299.417H339.556ZM385.17 275.592V299.417H381.677V271.451H387.108L394.037 292.845C394.238 293.454 394.387 293.927 394.477 294.264C394.574 294.595 394.646 294.893 394.697 295.146C394.801 294.679 394.898 294.258 395.002 293.895C395.106 293.526 395.21 293.176 395.327 292.845L402.508 271.451H407.952V299.417H404.27V275.592C404.179 275.994 404.083 276.403 403.966 276.817C403.856 277.225 403.733 277.633 403.603 278.036L396.409 299.417H392.818L385.799 278.036C385.669 277.686 385.559 277.304 385.456 276.901C385.352 276.493 385.26 276.058 385.17 275.592ZM440.233 287.796H448.951L444.622 275.456L440.233 287.796ZM432.145 299.417L442.534 271.451H446.728L457.15 299.417H453.028L450.066 291.062H439.061L436.08 299.417H432.145ZM500.903 289.027H504.585C504.423 292.43 503.256 295.145 501.098 297.168C498.946 299.184 496.153 300.195 492.737 300.195C488.804 300.195 485.718 298.853 483.482 296.17C481.246 293.486 480.131 289.773 480.131 285.023C480.131 280.641 481.304 277.167 483.644 274.587C485.984 272.014 489.146 270.725 493.119 270.725C496.283 270.725 498.875 271.541 500.891 273.174C502.913 274.808 504.079 277.037 504.397 279.857H500.677C500.32 278.01 499.478 276.583 498.15 275.592C496.82 274.6 495.096 274.101 492.97 274.101C490.132 274.101 487.935 275.093 486.373 277.083C484.811 279.073 484.027 281.872 484.027 285.495C484.027 288.911 484.837 291.653 486.463 293.713C488.09 295.781 490.249 296.812 492.932 296.812C495.219 296.812 497.1 296.099 498.558 294.672C500.023 293.253 500.8 291.367 500.903 289.027ZM530.38 299.417V271.451H550.315V274.924H534.139V283.279H549.084V286.546H534.139V295.923H550.639V299.417H530.38ZM537.463 269.001L541.34 262.39H545.156L539.745 269.001H537.463ZM576.506 299.417V271.451H580.667L593.726 291.762C594.018 292.21 594.27 292.625 594.484 293.019C594.698 293.409 594.868 293.778 594.997 294.123V271.451H598.627V299.417H594.504L581.159 278.82C580.958 278.502 580.771 278.172 580.602 277.828C580.427 277.491 580.265 277.128 580.116 276.746V299.417H576.506ZM680.365 274.678H673.833V296.001H680.365C683.159 296.001 685.272 295.094 686.704 293.279C688.137 291.458 688.85 288.775 688.85 285.216C688.85 281.814 688.124 279.202 686.665 277.393C685.214 275.586 683.108 274.678 680.365 274.678ZM670.035 299.417V271.451H680.684C684.585 271.451 687.573 272.618 689.64 274.944C691.707 277.27 692.745 280.634 692.745 285.029C692.745 289.572 691.669 293.104 689.524 295.632C687.378 298.153 684.385 299.417 680.535 299.417H670.035ZM718.838 299.417V271.451H738.774V274.924H722.597V283.279H737.542V286.546H722.597V295.923H739.098V299.417H718.838ZM828.692 289.027H832.374C832.212 292.43 831.045 295.145 828.887 297.168C826.735 299.184 823.942 300.195 820.526 300.195C816.593 300.195 813.507 298.853 811.271 296.17C809.035 293.486 807.92 289.773 807.92 285.023C807.92 280.641 809.093 277.167 811.433 274.587C813.773 272.014 816.935 270.725 820.908 270.725C824.072 270.725 826.664 271.541 828.679 273.174C830.702 274.808 831.868 277.037 832.186 279.857H828.465C828.109 278.01 827.267 276.583 825.939 275.592C824.61 274.6 822.885 274.101 820.759 274.101C817.921 274.101 815.724 275.093 814.162 277.083C812.6 279.073 811.816 281.872 811.816 285.495C811.816 288.911 812.626 291.653 814.252 293.713C815.879 295.781 818.037 296.812 820.721 296.812C823.008 296.812 824.888 296.099 826.346 294.672C827.811 293.253 828.589 291.367 828.692 289.027ZM863.139 287.796H871.857L867.527 275.456L863.139 287.796ZM855.051 299.417L865.44 271.451H869.634L880.056 299.417H875.933L872.971 291.062H861.966L858.985 299.417H855.051ZM907.976 274.737V284.212H914.47C916.816 284.212 918.469 283.83 919.441 283.071C920.407 282.314 920.893 281.05 920.893 279.274C920.893 277.614 920.439 276.448 919.525 275.76C918.611 275.081 916.926 274.737 914.47 274.737H907.976ZM904.256 271.451H915.099C916.855 271.451 918.152 271.528 918.981 271.677C919.811 271.833 920.555 272.086 921.21 272.436C922.39 273.084 923.285 273.984 923.9 275.132C924.516 276.286 924.82 277.641 924.82 279.196C924.82 280.706 924.496 281.996 923.855 283.065C923.207 284.134 922.248 284.97 920.971 285.58C922.053 285.884 922.831 286.396 923.291 287.116C923.751 287.835 924.036 289.06 924.153 290.778L924.477 295.393C924.541 296.377 924.672 297.116 924.866 297.602C925.067 298.089 925.358 298.439 925.754 298.639V299.417H921.366C921.009 298.834 920.763 297.589 920.627 295.677V295.561L920.394 291.919C920.265 290.046 919.868 288.833 919.195 288.276C918.527 287.718 916.849 287.439 914.166 287.439H908.015V299.417H904.256V271.451ZM951.348 299.417V271.451H955.509L968.568 291.762C968.86 292.21 969.112 292.625 969.326 293.019C969.54 293.409 969.709 293.778 969.839 294.123V271.451H973.468V299.417H969.346L956.001 278.82C955.8 278.502 955.612 278.172 955.443 277.828C955.268 277.491 955.107 277.128 954.957 276.746V299.417H951.348ZM1000.74 299.417V271.451H1020.68V274.924H1004.5V283.279H1019.44V286.546H1004.5V295.923H1021V299.417H1000.74ZM1045.61 290.207H1049.27C1049.31 292.229 1049.98 293.843 1051.29 295.049C1052.6 296.247 1054.35 296.851 1056.54 296.851C1058.71 296.851 1060.42 296.396 1061.66 295.483C1062.91 294.576 1063.54 293.332 1063.54 291.762C1063.54 289.624 1061.2 287.997 1056.51 286.883C1056.23 286.824 1056.02 286.773 1055.86 286.733C1052.06 285.833 1049.56 284.828 1048.34 283.72C1047.11 282.618 1046.5 281.043 1046.5 279.001C1046.5 276.513 1047.42 274.51 1049.24 272.994C1051.06 271.483 1053.48 270.725 1056.51 270.725C1059.6 270.725 1062.03 271.522 1063.8 273.11C1065.57 274.698 1066.47 276.875 1066.5 279.649L1062.87 279.668C1062.74 277.795 1062.1 276.356 1060.96 275.358C1059.82 274.353 1058.25 273.855 1056.26 273.855C1054.4 273.855 1052.92 274.264 1051.81 275.08C1050.69 275.897 1050.13 276.985 1050.13 278.34C1050.13 280.504 1052.43 282.118 1057.04 283.181C1057.72 283.342 1058.25 283.472 1058.62 283.563L1059.02 283.654C1062.03 284.379 1064.03 285.158 1065.01 285.994C1065.77 286.622 1066.34 287.394 1066.72 288.295C1067.12 289.202 1067.31 290.213 1067.31 291.328C1067.31 294.024 1066.35 296.169 1064.42 297.764C1062.49 299.359 1059.87 300.155 1056.59 300.155C1053.19 300.155 1050.55 299.3 1048.66 297.582C1046.76 295.865 1045.75 293.409 1045.61 290.207Z" fill="#E6C25E"/>
<path d="M1369.23 221.176L1313.24 49.605H1265.21L1207.42 221.176H1254.42L1266.49 181.878H1310.93L1323.25 221.176H1369.23ZM1300.91 149.003H1276.51L1288.84 97.8908L1300.91 149.003Z" fill="#F6EECB"/>
</svg>
